<?xml version="1.0" encoding="UTF-8"?>
<svg version="1.1" xmlns="http://www.w3.org/2000/svg" width="548" height="455">
<path d="M0 0 C1.64551849 -0.01029488 1.64551849 -0.01029488 3.32427979 -0.02079773 C6.93393061 -0.0390294 10.54314525 -0.03523295 14.15283203 -0.02954102 C16.67335145 -0.03410477 19.19386962 -0.03941093 21.71438599 -0.04542542 C26.99159686 -0.05434958 32.26869549 -0.0521769 37.54589844 -0.04199219 C43.62403141 -0.03052007 49.70172266 -0.04457876 55.77979743 -0.07138866 C61.65311821 -0.09631415 67.52626859 -0.09870699 73.3996315 -0.0922718 C75.88660542 -0.09211888 78.37358796 -0.09813945 80.86053085 -0.11056328 C84.3448502 -0.12551718 87.82820973 -0.11476236 91.3125 -0.09765625 C92.32996307 -0.10732422 93.34742615 -0.11699219 94.39572144 -0.12695312 C102.40101404 -0.04506709 108.68879786 2.03698577 115.59814453 6.02905273 C120.73742959 11.60884794 123.8803819 18.99288999 123.93954468 26.58534241 C123.94814514 27.41109268 123.95674561 28.23684296 123.96560669 29.08761597 C123.97199661 30.43353317 123.97199661 30.43353317 123.97851562 31.80664062 C123.98669312 32.75825577 123.99487061 33.70987091 124.0032959 34.69032288 C124.02808845 37.83577854 124.04464478 40.98118946 124.05908203 44.12670898 C124.06440571 45.20048735 124.06972939 46.27426571 124.07521439 47.38058281 C124.10191142 53.05742555 124.12130265 58.73424648 124.13574219 64.41113281 C124.14911662 69.11673265 124.17703862 73.82190246 124.21777344 78.52734375 C124.26692809 84.20540472 124.29184111 89.88307374 124.29896927 95.56133842 C124.30570383 97.72757688 124.32098261 99.89380584 124.34486008 102.05992317 C124.37630997 105.08403909 124.37657949 108.1066244 124.36914062 111.13085938 C124.38554596 112.03016174 124.40195129 112.92946411 124.41885376 113.85601807 C124.39568971 116.14759005 124.33597761 118.17964681 123.78564453 120.40405273 C120.38386643 123.32760706 116.51047635 124.23268174 112.21923828 125.41967773 C110.92601626 125.78357758 109.63280374 126.1475112 108.33959961 126.51147461 C107.66764557 126.69766357 106.99569153 126.88385254 106.30337524 127.07568359 C102.78350449 128.05431765 99.27264551 129.06405948 95.76220703 130.07592773 C95.06817276 130.27597412 94.37413849 130.47602051 93.65907288 130.68212891 C52.90682032 142.49730956 12.61113276 163.28543576 -9.02685547 201.40405273 C-21.32863938 223.82201079 -26.96416286 247.88994445 -31.63623047 272.79858398 C-32.21435547 275.40405273 -32.21435547 275.40405273 -33.21435547 276.40405273 C-36.1748183 276.51535715 -39.11216284 276.56145649 -42.07348633 276.56518555 C-43.00366577 276.57015045 -43.93384521 276.57511536 -44.89221191 276.58023071 C-47.98788175 276.59490387 -51.08350022 276.60166565 -54.17919922 276.60717773 C-56.3285777 276.61292843 -58.47795615 276.61868617 -60.62733459 276.62445068 C-65.1460087 276.63497768 -69.66466495 276.64080807 -74.18334961 276.64428711 C-79.95672572 276.64975145 -85.72986354 276.67372805 -91.50316525 276.70225906 C-95.94973928 276.72094902 -100.39625691 276.7260946 -104.8428669 276.72762299 C-106.96979629 276.73063969 -109.09672491 276.73863483 -111.22361565 276.75180817 C-114.21281449 276.76898856 -117.20144476 276.76695832 -120.19067383 276.76049805 C-121.06017166 276.76971283 -121.92966949 276.77892761 -122.82551575 276.78842163 C-130.32058862 276.73803841 -137.16413589 275.36079737 -143.52685547 271.27905273 C-149.45651405 264.93569705 -152.31555904 258.30562341 -152.36152649 249.62484741 C-152.36868179 248.6914856 -152.3758371 247.75812378 -152.38320923 246.79647827 C-152.38589813 245.78445343 -152.38858704 244.77242859 -152.39135742 243.72973633 C-152.39792862 242.65427551 -152.40449982 241.5788147 -152.41127014 240.47076416 C-152.43096587 236.91467209 -152.44265819 233.35862221 -152.45263672 229.80249023 C-152.45671225 228.58515827 -152.46078777 227.36782631 -152.4649868 226.1136055 C-152.48583276 219.66891907 -152.50014027 213.22425384 -152.50952148 206.77954102 C-152.52057607 200.13867704 -152.55496974 193.49815737 -152.59469318 186.85739708 C-152.62089689 181.7373901 -152.62921674 176.61746269 -152.63280296 171.49739456 C-152.63766002 169.05030679 -152.64924867 166.60322237 -152.66784096 164.15620041 C-152.69230891 160.72211181 -152.69125281 157.28888624 -152.68432617 153.85473633 C-152.69713623 152.85485687 -152.70994629 151.85497742 -152.72314453 150.82479858 C-152.66456836 142.80848631 -151.04150108 135.23224991 -146.20654297 128.68530273 C-145.50787109 128.09749023 -144.80919922 127.50967773 -144.08935547 126.90405273 C-143.40615234 126.29561523 -142.72294922 125.68717773 -142.01904297 125.06030273 C-134.88132337 120.84527055 -127.31854619 119.96263839 -119.17480469 120.06347656 C-118.22724808 120.06303848 -117.27969147 120.0626004 -116.30342102 120.06214905 C-113.20840993 120.06421926 -110.11395802 120.08746613 -107.01904297 120.11108398 C-104.85857438 120.11668623 -102.69810195 120.12095336 -100.53762817 120.12394714 C-94.87904146 120.13534636 -89.22068945 120.16477088 -83.56219482 120.19805908 C-77.77700982 120.2288665 -71.99178653 120.24247521 -66.20654297 120.25756836 C-54.87571126 120.28964553 -43.54505296 120.34078187 -32.21435547 120.40405273 C-32.21879669 119.2508403 -32.22323792 118.09762787 -32.22781372 116.9094696 C-32.26846747 106.00824495 -32.29839141 95.10703581 -32.31797981 84.20575237 C-32.32838913 78.60214246 -32.342496 72.99859405 -32.36523438 67.39501953 C-32.38706474 61.98094394 -32.39894552 56.56692728 -32.40410995 51.15281105 C-32.40778747 49.09369798 -32.41496847 47.0345879 -32.42581558 44.97550011 C-32.57129487 16.19863734 -32.57129487 16.19863734 -24.21435547 7.40405273 C-17.20230264 0.57652761 -9.28773854 -0.04092967 0 0 Z " fill="#0FB4EE" transform="translate(240.21435546875,27.595947265625)"/>
<path d="M0 0 C1.63909912 1.28408813 1.63909912 1.28408813 3 3 C3.57683647 10.91867142 2.43318058 18.85103164 1.609375 26.7265625 C1.46184555 28.16073893 1.31448999 29.59493325 1.16729736 31.02914429 C0.85774934 34.03344516 0.54454269 37.03733832 0.22900391 40.04101562 C-0.088934 43.07137888 -0.4011283 46.10223676 -0.70751953 49.13378906 C-3.61772757 77.91561492 -3.61772757 77.91561492 -6.0546875 92.02734375 C-6.20681702 92.90891144 -6.35894653 93.79047913 -6.51568604 94.69876099 C-8.17422726 103.73388586 -10.95054652 112.35209266 -14 121 C-14.45615883 122.35532422 -14.91190091 123.71078878 -15.3671875 125.06640625 C-21.01965138 141.42784476 -29.42802869 156.33670913 -40 170 C-40.70511719 170.928125 -41.41023437 171.85625 -42.13671875 172.8125 C-71.65720389 210.35426299 -112.85591767 223.12808066 -157.02368164 235.8041687 C-173.15264517 240.45110025 -188.87565427 245.97102021 -203.24609375 254.78515625 C-206.70614741 256.31150616 -209.25690872 256.36766459 -213 256 C-217.10491618 252.11113204 -217.84963155 248.77434771 -218.3125 243.3125 C-217.93593247 220.34188093 -204.74408394 196.74542867 -190 180 C-189.29101562 179.15824219 -188.58203125 178.31648437 -187.8515625 177.44921875 C-178.66465402 166.78643508 -167.63213848 158.7826538 -156 151 C-154.87188682 150.2325185 -153.74428203 149.46428918 -152.6171875 148.6953125 C-144.40566589 143.13522196 -144.40566589 143.13522196 -141 142 C-141 141.34 -141 140.68 -141 140 C-162.86465877 148.29198636 -182.65067548 160.38086768 -200 176 C-200.73734375 176.65355469 -201.4746875 177.30710937 -202.234375 177.98046875 C-224.47255545 198.83988201 -233.65177407 229.88393653 -235.12597656 259.53369141 C-235.72890263 279.47985959 -233.86333122 299.22117872 -225.82421875 317.703125 C-224.64489551 320.98958029 -225.3397497 323.63272347 -226 327 C-228.6875 327.875 -228.6875 327.875 -232 328 C-244.66646774 317.49609992 -246.49016205 291.49191347 -249.1875 276.3125 C-249.34226807 275.44834473 -249.49703613 274.58418945 -249.65649414 273.69384766 C-252.42481156 257.39705356 -253.37731424 241.38391449 -253.3125 224.875 C-253.31034485 223.88421448 -253.3081897 222.89342896 -253.30596924 221.87261963 C-253.25433859 207.06477038 -252.83479452 192.57569484 -250 178 C-249.79600586 176.92733887 -249.59201172 175.85467773 -249.38183594 174.74951172 C-241.216482 132.8708733 -225.89110519 98.83859583 -190.0859375 73.9765625 C-164.00771327 57.11860752 -134.5035215 49.15113757 -104.875 41.125 C-53.91981417 27.4094088 -53.91981417 27.4094088 -8 2 C-4.76746204 -0.15502531 -3.74849077 -0.46856135 0 0 Z " fill="#0EA357" transform="translate(471,120)"/>
<path d="M0 0 C0.38768005 1.95751953 0.38768005 1.95751953 0.40405273 4.3828125 C0.41673691 5.29135986 0.42942108 6.19990723 0.44248962 7.13598633 C0.43955399 8.12236084 0.43661835 9.10873535 0.43359375 10.125 C0.4388356 11.14166748 0.44407745 12.15833496 0.44947815 13.20581055 C0.45591386 15.36457404 0.45454144 17.52337254 0.44604492 19.68212891 C0.43760479 22.95931196 0.46616168 26.23471124 0.49804688 29.51171875 C0.49966089 31.61197865 0.49907754 33.7122416 0.49609375 35.8125 C0.50732773 36.78268066 0.51856171 37.75286133 0.53013611 38.75244141 C0.45046755 46.682521 -1.61402868 53.02338113 -5.6875 59.8125 C-12.84742543 66.58540243 -20.16118993 68.15505361 -29.71582031 68.11352539 C-30.59422577 68.11367142 -31.47263123 68.11381744 -32.37765503 68.1139679 C-35.2778369 68.11327185 -38.17795436 68.10549386 -41.078125 68.09765625 C-43.09022995 68.09579098 -45.10233535 68.09436759 -47.11444092 68.09336853 C-52.40805314 68.08955198 -57.70163789 68.07972902 -62.99523926 68.06866455 C-68.39786406 68.05843192 -73.8004933 68.05386694 -79.203125 68.04882812 C-89.8020954 68.038106 -100.40104541 68.0210399 -111 68 C-111.48701895 66.73059233 -111.97126334 65.46011996 -112.4543457 64.18920898 C-112.72430862 63.4818309 -112.99427155 62.77445282 -113.27241516 62.04563904 C-116.88605722 51.8857142 -116.22894487 40.62049801 -116 30 C-111.93712232 30 -108.72410696 30.73983012 -104.828125 31.7578125 C-98.14962736 32.32972804 -92.48143883 29.46595824 -86.75 26.375 C-69.65039319 17.5211295 -51.61690354 11.77238808 -33.1574707 6.45068359 C-29.3790032 5.3580848 -25.60853532 4.24035581 -21.83789062 3.12109375 C-19.43272927 2.42037123 -17.0271457 1.72109588 -14.62109375 1.0234375 C-13.49626083 0.6882309 -12.37142792 0.35302429 -11.21250916 0.00765991 C-9.65796776 -0.43433243 -9.65796776 -0.43433243 -8.07202148 -0.88525391 C-7.16193832 -1.14980377 -6.25185516 -1.41435364 -5.31419373 -1.68692017 C-3 -2 -3 -2 0 0 Z " fill="#029BDE" transform="translate(364,356)"/>
<path d="M0 0 C-0.66 0 -1.32 0 -2 0 C-2 0.66 -2 1.32 -2 2 C-18.411735 8.4751014 -18.411735 8.4751014 -26.27734375 9.578125 C-26.84582031 9.71734375 -27.41429687 9.8565625 -28 10 C-28.33 10.66 -28.66 11.32 -29 12 C-30.97300116 13.05226728 -32.97676387 14.04788888 -35 15 C-35.721875 15.37125 -36.44375 15.7425 -37.1875 16.125 C-39 17 -39 17 -42 18 C-42.474375 18.495 -42.94875 18.99 -43.4375 19.5 C-45.30703696 21.29475548 -46.49910544 21.43866783 -49 22 C-55.05277806 23.88529153 -59.78837496 26.13140838 -64 31 C-65.34772903 34.12133744 -65.34772903 34.12133744 -66 37 C-68 39 -68 39 -71.3125 39.3125 C-75.82044095 40.15296357 -77.01257185 41.6194892 -80 45 C-80.78503906 45.60070312 -81.57007813 46.20140625 -82.37890625 46.8203125 C-85.20611026 49.17140019 -87.1622871 51.5862166 -89.3125 54.5625 C-90.00988281 55.51253906 -90.70726562 56.46257812 -91.42578125 57.44140625 C-93.26201244 59.92516954 -93.26201244 59.92516954 -93 63 C-93.99 63 -94.98 63 -96 63 C-96.2475 64.11375 -96.495 65.2275 -96.75 66.375 C-98.19858332 70.57589162 -98.4124337 70.20621685 -102 72 C-102.7136591 74.31939207 -103.3747292 76.65523449 -104 79 C-104.680625 79.928125 -105.36125 80.85625 -106.0625 81.8125 C-108.36685763 85.60353998 -108.3970587 88.21580673 -108.65625 92.55078125 C-109.01320043 95.09405307 -109.62809907 96.48385462 -111 98.625 C-113.43791331 102.73897872 -113.76319408 105.26388154 -114 110 C-113.67 110.99 -113.34 111.98 -113 113 C-114.18603297 115.85896367 -115.80738796 118.80738796 -118 121 C-118.37476498 123.47989015 -118.70575979 125.94795193 -119 128.4375 C-119.86723508 135.73447016 -119.86723508 135.73447016 -121 138 C-121.07066599 140.99005469 -120.99693034 143.96694229 -120.9375 146.95703125 C-121 150 -121 150 -121.5625 152.76171875 C-122.24148039 155.02577909 -122.24148039 155.02577909 -121 157 C-121.33 157.99 -121.66 158.98 -122 160 C-122.07358152 162.98740955 -122.09165535 165.95091646 -122.0625 168.9375 C-122.05871338 169.81398193 -122.05492676 170.69046387 -122.05102539 171.59350586 C-122.03880172 174.39572026 -122.0201733 177.19783221 -122 180 C-121.97345305 183.68749728 -121.95343117 187.37494329 -121.9375 191.0625 C-121.92920166 191.91255615 -121.92090332 192.7626123 -121.91235352 193.63842773 C-121.89824915 197.01556273 -121.9242592 199.7727776 -123 203 C-122.34 203 -121.68 203 -121 203 C-120.95101562 204.21816406 -120.90203125 205.43632812 -120.8515625 206.69140625 C-120.77647727 208.31512437 -120.70093198 209.93882126 -120.625 211.5625 C-120.5940625 212.36236328 -120.563125 213.16222656 -120.53125 213.98632812 C-120.28671318 218.97895496 -119.52384751 223.24174098 -118 228 C-117.855625 228.928125 -117.71125 229.85625 -117.5625 230.8125 C-117.16356528 233.37317827 -117.16356528 233.37317827 -114 235 C-113.95834237 236.99956611 -113.95834237 239.00043389 -114 241 C-113.34 241.66 -112.68 242.32 -112 243 C-111.04301039 239.14773004 -111.04515959 235.98004098 -111.45703125 232.04296875 C-112.06533646 225.08713086 -111.97675685 218.28240139 -111.6875 211.3125 C-111.65205078 210.16716797 -111.61660156 209.02183594 -111.58007812 207.84179688 C-111.3471679 201.76179712 -110.80380048 196.00519743 -109.42553711 190.07348633 C-108.86885613 187.36098401 -108.85485786 184.75770072 -109 182 C-108.34 182 -107.68 182 -107 182 C-107.04125 180.906875 -107.0825 179.81375 -107.125 178.6875 C-107 175 -107 175 -105 172 C-103.40448286 167.65664779 -102.94882493 164.43597698 -103.1875 159.8125 C-103.24609375 157.21484375 -103.24609375 157.21484375 -103 155 C-100.75 152.875 -100.75 152.875 -98 151 C-96.43663701 148.43268825 -95.19685211 145.75476576 -94 143 C-93.01 143 -92.02 143 -91 143 C-90.7215625 142.42765625 -90.443125 141.8553125 -90.15625 141.265625 C-89.01726208 139.03382434 -87.80063617 136.89129126 -86.5 134.75 C-86.0771875 134.04359375 -85.654375 133.3371875 -85.21875 132.609375 C-84.8165625 132.07828125 -84.414375 131.5471875 -84 131 C-83.34 131 -82.68 131 -82 131 C-81.67 130.01 -81.34 129.02 -81 128 C-80.34 128 -79.68 128 -79 128 C-78.67 127.01 -78.34 126.02 -78 125 C-76.44140625 123.39453125 -76.44140625 123.39453125 -74.5625 121.8125 C-73.94503906 121.28269531 -73.32757813 120.75289063 -72.69140625 120.20703125 C-71 119 -71 119 -69 119 C-68.505 117.515 -68.505 117.515 -68 116 C-64.82757352 114.68964993 -62.44118336 114 -59 114 C-62.13416684 117.18649986 -65.3402488 120.25031629 -68.65527344 123.24755859 C-93.71203933 145.9640196 -106.18630019 174.2541914 -108 208 C-108.96578073 228.74870868 -107.19560721 249.45727513 -98.82421875 268.703125 C-97.64489551 271.98958029 -98.3397497 274.63272347 -99 278 C-101.6875 278.875 -101.6875 278.875 -105 279 C-117.66646774 268.49609992 -119.49016205 242.49191347 -122.1875 227.3125 C-122.34226807 226.44834473 -122.49703613 225.58418945 -122.65649414 224.69384766 C-125.42481156 208.39705356 -126.37731424 192.38391449 -126.3125 175.875 C-126.31034485 174.88421448 -126.3081897 173.89342896 -126.30596924 172.87261963 C-126.25433859 158.06477038 -125.83479452 143.57569484 -123 129 C-122.79600586 127.92733887 -122.59201172 126.85467773 -122.38183594 125.74951172 C-114.216482 83.8708733 -98.89110519 49.83859583 -63.0859375 24.9765625 C-48.24452511 15.38250964 -31.956905 8.36179509 -15.25 2.75 C-13.49115479 2.15747437 -13.49115479 2.15747437 -11.69677734 1.55297852 C-3.39290961 -1.13096987 -3.39290961 -1.13096987 0 0 Z " fill="#A0D1B5" transform="translate(344,169)"/>
<path d="M0 0 C0.99 0.495 0.99 0.495 2 1 C0.1875 3.5 0.1875 3.5 -2 6 C-2.99 6 -3.98 6 -5 6 C-6.75626926 11.26880779 -7.09394367 15.45732321 -7 21 C-7.33 21.66 -7.66 22.32 -8 23 C-8.11768047 25.95378225 -8.17524503 28.88531684 -8.18945312 31.84008789 C-8.19774643 32.75560928 -8.20603973 33.67113068 -8.21458435 34.61439514 C-8.23200593 36.60601622 -8.24716695 38.59765803 -8.26036072 40.5893116 C-8.28133939 43.73606426 -8.30836481 46.88271234 -8.33703613 50.02940369 C-8.40696938 57.84391108 -8.46634673 65.65849255 -8.52606201 73.4730835 C-8.57689952 80.07473101 -8.6316926 86.67632206 -8.69187927 93.27789116 C-8.71855406 96.38731611 -8.73930677 99.49674602 -8.7598877 102.60621643 C-8.77648267 104.50058241 -8.79335379 106.394946 -8.81054688 108.28930664 C-8.81473129 109.1615387 -8.81891571 110.03377075 -8.82322693 110.93243408 C-8.88615431 116.88615431 -8.88615431 116.88615431 -10 118 C-13.13929146 118.10945389 -16.25738703 118.15424153 -19.39746094 118.15771484 C-20.3844397 118.16279556 -21.37141846 118.16787628 -22.38830566 118.17311096 C-24.53982393 118.18384123 -26.69135354 118.19245091 -28.84288788 118.19923019 C-32.24690154 118.21098074 -35.65078611 118.23042427 -39.05474854 118.25234985 C-48.73599966 118.3140903 -58.41723911 118.36801085 -68.09863281 118.40136719 C-74.01320612 118.42229801 -79.92754699 118.45759262 -85.84198761 118.50212479 C-88.09860753 118.51630203 -90.35526861 118.5250111 -92.61193085 118.52817917 C-95.7698552 118.53308079 -98.92716182 118.55622128 -102.08496094 118.58349609 C-103.01918884 118.58048996 -103.95341675 118.57748383 -104.91595459 118.5743866 C-109.85326749 118.63780136 -112.89310904 118.98130077 -117 122 C-117.66 122 -118.32 122 -119 122 C-119 122.66 -119 123.32 -119 124 C-120.32 124 -121.64 124 -123 124 C-123.103125 124.680625 -123.20625 125.36125 -123.3125 126.0625 C-124 129 -124 129 -125.5 132.25 C-128.67031191 139.40891974 -128.14904514 147.69095415 -128.14526367 155.37817383 C-128.14862228 156.37458389 -128.1519809 157.37099396 -128.15544128 158.39759827 C-128.16488273 161.6674222 -128.16689092 164.93719456 -128.16796875 168.20703125 C-128.17118591 170.49712647 -128.17455032 172.78722149 -128.17805481 175.07731628 C-128.18402895 179.86933875 -128.18589646 184.66134322 -128.18530273 189.45336914 C-128.18520118 195.56928881 -128.19885467 201.68509223 -128.21607494 207.80098438 C-128.22723691 212.52899192 -128.22922066 217.25697171 -128.22869301 221.98499107 C-128.22986675 224.23864836 -128.23425418 226.49230651 -128.24202538 228.7459507 C-128.41248789 244.98850006 -128.41248789 244.98850006 -126 261 C-130.32700169 257.12428512 -131.66743935 252.09953492 -132.27642632 246.42364883 C-132.39476644 243.56882543 -132.41694541 240.72882439 -132.40405273 237.87158203 C-132.41091599 236.79553711 -132.41777924 235.71949219 -132.42485046 234.61083984 C-132.44305595 231.07636072 -132.43928947 227.54232817 -132.43359375 224.0078125 C-132.43815875 221.53595842 -132.44346527 219.06410562 -132.44947815 216.59225464 C-132.45839719 211.4193607 -132.45599999 206.24662124 -132.44604492 201.07373047 C-132.43456107 194.46431722 -132.45476474 187.8554387 -132.48396206 181.24609566 C-132.50236153 176.14322556 -132.502024 171.0404827 -132.49632454 165.93758774 C-132.49617176 163.50167974 -132.50217972 161.06576288 -132.51461601 158.62988663 C-132.52959334 155.21532489 -132.51879821 151.80173949 -132.50170898 148.38720703 C-132.51137695 147.39361176 -132.52104492 146.40001648 -132.53100586 145.37631226 C-132.44779834 137.38481151 -130.81153213 129.80705518 -125.9921875 123.28125 C-125.29351562 122.6934375 -124.59484375 122.105625 -123.875 121.5 C-123.19179687 120.8915625 -122.50859375 120.283125 -121.8046875 119.65625 C-114.6669679 115.44121781 -107.10419073 114.55858566 -98.96044922 114.65942383 C-98.01289261 114.65898575 -97.065336 114.65854767 -96.08906555 114.65809631 C-92.99405446 114.66016652 -89.89960256 114.6834134 -86.8046875 114.70703125 C-84.64421891 114.7126335 -82.48374648 114.71690062 -80.32327271 114.71989441 C-74.664686 114.73129363 -69.00633398 114.76071815 -63.34783936 114.79400635 C-57.56265436 114.82481376 -51.77743106 114.83842248 -45.9921875 114.85351562 C-34.66135579 114.8855928 -23.33069749 114.93672914 -12 115 C-12.00444122 113.84678757 -12.00888245 112.69357513 -12.01345825 111.50541687 C-12.054112 100.60419222 -12.08403594 89.70298308 -12.10362434 78.80169964 C-12.11403366 73.19808972 -12.12814054 67.59454132 -12.15087891 61.9909668 C-12.17270927 56.5768912 -12.18459005 51.16287455 -12.18975449 45.74875832 C-12.193432 43.68964524 -12.200613 41.63053516 -12.21146011 39.57144737 C-12.3521543 11.74111298 -12.3521543 11.74111298 -6.3671875 4.375 C-4.42489766 2.42161136 -2.52606486 1.09235237 0 0 Z " fill="#6DCDE4" transform="translate(220,33)"/>
<path d="M0 0 C0.38768005 1.95751953 0.38768005 1.95751953 0.40405273 4.3828125 C0.41673691 5.29135986 0.42942108 6.19990723 0.44248962 7.13598633 C0.43955399 8.12236084 0.43661835 9.10873535 0.43359375 10.125 C0.4388356 11.14166748 0.44407745 12.15833496 0.44947815 13.20581055 C0.45591386 15.36457404 0.45454144 17.52337254 0.44604492 19.68212891 C0.43760479 22.95931196 0.46616168 26.23471124 0.49804688 29.51171875 C0.49966089 31.61197865 0.49907754 33.7122416 0.49609375 35.8125 C0.50732773 36.78268066 0.51856171 37.75286133 0.53013611 38.75244141 C0.45046755 46.682521 -1.61402868 53.02338113 -5.6875 59.8125 C-12.84742543 66.58540243 -20.16118993 68.15505361 -29.71582031 68.11352539 C-30.59422577 68.11367142 -31.47263123 68.11381744 -32.37765503 68.1139679 C-35.2778369 68.11327185 -38.17795436 68.10549386 -41.078125 68.09765625 C-43.09022995 68.09579098 -45.10233535 68.09436759 -47.11444092 68.09336853 C-52.40805314 68.08955198 -57.70163789 68.07972902 -62.99523926 68.06866455 C-68.39786406 68.05843192 -73.8004933 68.05386694 -79.203125 68.04882812 C-89.8020954 68.038106 -100.40104541 68.0210399 -111 68 C-111.49229904 66.73556221 -111.9800168 65.46934017 -112.46582031 64.20239258 C-112.73791321 63.4974617 -113.0100061 62.79253082 -113.29034424 62.0662384 C-116.09854119 53.8898736 -115.09671837 44.41942256 -114 36 C-113.67 36 -113.34 36 -113 36 C-112.86722656 36.94101562 -112.73445312 37.88203125 -112.59765625 38.8515625 C-112.42105469 40.09679687 -112.24445313 41.34203125 -112.0625 42.625 C-111.80146484 44.46964844 -111.80146484 44.46964844 -111.53515625 46.3515625 C-111.21448054 48.53777503 -110.8745664 50.72148629 -110.49609375 52.8984375 C-110.08014878 55.49891238 -109.75399296 58.07708073 -109.46899414 60.69384766 C-109.38065811 61.5011734 -109.29232208 62.30849915 -109.2013092 63.14028931 C-109.10166115 64.0608461 -109.10166115 64.0608461 -109 65 C-98.05556031 65.04641935 -87.1111442 65.08191795 -76.16662598 65.10362434 C-71.08419304 65.11404434 -66.00182766 65.12817092 -60.91943359 65.15087891 C-56.01111185 65.17267094 -51.10285493 65.18458204 -46.19448853 65.18975449 C-44.32547994 65.19343883 -42.45647475 65.20063338 -40.5874939 65.21146011 C-37.96189818 65.2260596 -35.33656752 65.22797442 -32.7109375 65.22705078 C-31.56186165 65.23783661 -31.56186165 65.23783661 -30.38957214 65.24884033 C-24.2020489 65.22541493 -18.88271407 63.96090469 -13 62 C-11.77479736 58.99152582 -11.77479736 58.99152582 -11 56 C-10.34 56 -9.68 56 -9 56 C-8.67 55.01 -8.34 54.02 -8 53 C-7.34 53 -6.68 53 -6 53 C-4.80282971 48.24100574 -4.79585451 43.55945325 -4.71875 38.68359375 C-4.70034058 37.79011734 -4.68193115 36.89664093 -4.66296387 35.97608948 C-4.58456341 32.16557348 -4.51656579 28.35488876 -4.44775391 24.54418945 C-4.39593682 21.75723818 -4.33873232 18.970433 -4.28125 16.18359375 C-4.26767456 15.32309921 -4.25409912 14.46260468 -4.2401123 13.57603455 C-4.22339478 12.7716243 -4.20667725 11.96721405 -4.18945312 11.13842773 C-4.17066101 10.08183205 -4.17066101 10.08183205 -4.15148926 9.00389099 C-3.99306292 6.90823668 -3.56640658 5.02047029 -3 3 C-4.41805831 3.28482368 -5.83440379 3.57818144 -7.25 3.875 C-8.43335938 4.11863281 -8.43335938 4.11863281 -9.640625 4.3671875 C-11.98639955 4.90190291 -11.98639955 4.90190291 -13.8984375 6.0078125 C-16.68836851 7.32499182 -19.32130764 7.60138282 -22.375 8 C-26.83268107 8.58461391 -30.74924595 9.55878128 -35 11 C-36.99197225 11.39683822 -38.9928355 11.75149404 -41 12.0625 C-41.99 12.21847656 -42.98 12.37445313 -44 12.53515625 C-44.99 12.68855469 -45.98 12.84195312 -47 13 C-49.00037418 13.33108045 -51.0004846 13.66377196 -53 14 C-53 14.66 -53 15.32 -53 16 C-55.64 16 -58.28 16 -61 16 C-58.09526027 14.06350684 -55.96995068 13.25710392 -52.65820312 12.27246094 C-51.02135559 11.78250641 -51.02135559 11.78250641 -49.35144043 11.28265381 C-48.17327759 10.9367218 -46.99511475 10.59078979 -45.78125 10.234375 C-44.57182739 9.87732483 -43.36240479 9.52027466 -42.11633301 9.15240479 C-39.55832664 8.39983883 -36.99970642 7.64983481 -34.43994141 6.90332031 C-31.15753717 5.94509091 -27.88043369 4.9699089 -24.60428619 3.99053574 C-21.47919174 3.06014422 -18.34863767 2.14848818 -15.21875 1.234375 C-14.04058716 0.88034607 -12.86242432 0.52631714 -11.64855957 0.16156006 C-10.55732788 -0.15246765 -9.46609619 -0.46649536 -8.34179688 -0.79003906 C-7.38043823 -1.07268616 -6.41907959 -1.35533325 -5.42858887 -1.64654541 C-3 -2 -3 -2 0 0 Z " fill="#1090C8" transform="translate(364,356)"/>
<path d="M0 0 C3 2 3 2 3.67788124 3.8636694 C4.00018233 6.00120924 4.13705882 8.02001582 4.15390015 10.18128967 C4.16250061 11.00703995 4.17110107 11.83279022 4.17996216 12.68356323 C4.18422211 13.58084137 4.18848206 14.47811951 4.19287109 15.40258789 C4.20513733 16.8300106 4.20513733 16.8300106 4.21765137 18.28627014 C4.24244392 21.4317258 4.25900025 24.57713672 4.2734375 27.72265625 C4.27876118 28.79643461 4.28408485 29.87021297 4.28956985 30.97653008 C4.31626689 36.65337281 4.33565812 42.33019375 4.35009766 48.00708008 C4.36347209 52.71267992 4.39139409 57.41784973 4.43212891 62.12329102 C4.48128356 67.80135199 4.50619658 73.479021 4.51332474 79.15728569 C4.5200593 81.32352415 4.53533808 83.48975311 4.55921555 85.65587044 C4.59066544 88.67998636 4.59093496 91.70257167 4.58349609 94.72680664 C4.59990143 95.62610901 4.61630676 96.52541138 4.63320923 97.45196533 C4.61004756 99.74330191 4.54965061 101.77567877 4 104 C0.52801176 106.98919933 -3.54647093 107.93079505 -7.91796875 109.19140625 C-8.57525467 109.38218246 -9.23254059 109.57295868 -9.90974426 109.76951599 C-11.29635085 110.17031343 -12.68396526 110.56763876 -14.07250977 110.96166992 C-16.16612892 111.55642887 -18.25603857 112.16299496 -20.34570312 112.77148438 C-39.92267153 118.42512255 -39.92267153 118.42512255 -48 118 C-45.44008376 115.98863724 -42.95409701 114.37154504 -40 113 C-40 112.67 -40 112.34 -40 112 C-37.03 112 -34.06 112 -31 112 C-31 111.34 -31 110.68 -31 110 C-32.65 110 -34.3 110 -36 110 C-36 109.34 -36 108.68 -36 108 C-34.40671875 108.05220703 -34.40671875 108.05220703 -32.78125 108.10546875 C-25.16372961 108.27924906 -18.99833825 108.3645857 -12 105 C-11.29359375 104.86464844 -10.5871875 104.72929687 -9.859375 104.58984375 C-9.24578125 104.39519531 -8.6321875 104.20054687 -8 104 C-7.505 102.515 -7.505 102.515 -7 101 C-7 101.99 -7 102.98 -7 104 C-4.03 103.01 -4.03 103.01 -1 102 C-1.00222061 100.73688492 -1.00444122 99.47376984 -1.00672913 98.17237854 C-1.02695836 86.29676161 -1.04197108 74.42114814 -1.05181217 62.54551792 C-1.05704156 56.43943631 -1.0641402 50.33336856 -1.07543945 44.22729492 C-1.08626637 38.33994853 -1.09227642 32.45261551 -1.09487724 26.56525993 C-1.09673185 24.31367723 -1.10035313 22.06209531 -1.10573006 19.81051826 C-1.11293789 16.66866573 -1.11399105 13.52686917 -1.11352539 10.38500977 C-1.11712067 9.44418045 -1.12071594 8.50335114 -1.12442017 7.53401184 C-1.11405216 1.11405216 -1.11405216 1.11405216 0 0 Z " fill="#49ACD5" transform="translate(360,44)"/>
<path d="M0 0 C0.99 0.33 1.98 0.66 3 1 C-0.13416684 4.18649986 -3.3402488 7.25031629 -6.65527344 10.24755859 C-31.71203933 32.9640196 -44.18630019 61.2541914 -46 95 C-46.6313701 108.56427381 -45.73056835 121.45980816 -43.36376953 134.81933594 C-42.79963435 138.2011181 -42.39942785 141.5951684 -42 145 C-42.99 144.67 -43.98 144.34 -45 144 C-45.04898438 143.37351562 -45.09796875 142.74703125 -45.1484375 142.1015625 C-45.22320312 141.28429687 -45.29796875 140.46703125 -45.375 139.625 C-45.44460937 138.81289063 -45.51421875 138.00078125 -45.5859375 137.1640625 C-45.82892588 134.79665809 -45.82892588 134.79665809 -48 133 C-48.52247851 129.99651244 -48.90450047 127.09142735 -49.1875 124.0625 C-49.27354492 123.14750732 -49.35958984 122.23251465 -49.44824219 121.28979492 C-50.0783588 113.44405867 -50.0297913 105.67425683 -49.75 97.8125 C-49.71156982 96.69174072 -49.67313965 95.57098145 -49.63354492 94.41625977 C-49.36356244 88.49476186 -48.75428481 82.87118556 -47.42333984 77.09106445 C-46.87288876 74.37214085 -46.85457039 71.76316262 -47 69 C-46.34 69 -45.68 69 -45 69 C-45.04125 67.906875 -45.0825 66.81375 -45.125 65.6875 C-45 62 -45 62 -43 59 C-41.40448286 54.65664779 -40.94882493 51.43597698 -41.1875 46.8125 C-41.24609375 44.21484375 -41.24609375 44.21484375 -41 42 C-38.75 39.875 -38.75 39.875 -36 38 C-34.43663701 35.43268825 -33.19685211 32.75476576 -32 30 C-31.01 30 -30.02 30 -29 30 C-28.7215625 29.42765625 -28.443125 28.8553125 -28.15625 28.265625 C-27.01726208 26.03382434 -25.80063617 23.89129126 -24.5 21.75 C-24.0771875 21.04359375 -23.654375 20.3371875 -23.21875 19.609375 C-22.61546875 18.81273437 -22.61546875 18.81273437 -22 18 C-21.34 18 -20.68 18 -20 18 C-19.67 17.01 -19.34 16.02 -19 15 C-18.34 15 -17.68 15 -17 15 C-16.67 14.01 -16.34 13.02 -16 12 C-14.44140625 10.39453125 -14.44140625 10.39453125 -12.5625 8.8125 C-11.94503906 8.28269531 -11.32757813 7.75289063 -10.69140625 7.20703125 C-9 6 -9 6 -7 6 C-6.67 5.01 -6.34 4.02 -6 3 C-2.9375 1.8125 -2.9375 1.8125 0 1 C0 0.67 0 0.34 0 0 Z " fill="#80C29E" transform="translate(282,282)"/>
<path d="M0 0 C2 1 2 1 3 2 C3 2.66 3 3.32 3 4 C1.68 4 0.36 4 -1 4 C-1.1546875 5.0209375 -1.1546875 5.0209375 -1.3125 6.0625 C-2 9 -2 9 -3.5 12.25 C-6.67031191 19.40891974 -6.14904514 27.69095415 -6.14526367 35.37817383 C-6.14862228 36.37458389 -6.1519809 37.37099396 -6.15544128 38.39759827 C-6.16488273 41.6674222 -6.16689092 44.93719456 -6.16796875 48.20703125 C-6.17118591 50.49712647 -6.17455032 52.78722149 -6.17805481 55.07731628 C-6.18402895 59.86933875 -6.18589646 64.66134322 -6.18530273 69.45336914 C-6.18520118 75.56928881 -6.19885467 81.68509223 -6.21607494 87.80098438 C-6.22723691 92.52899192 -6.22922066 97.25697171 -6.22869301 101.98499107 C-6.22986675 104.23864836 -6.23425418 106.49230651 -6.24202538 108.7459507 C-6.41248789 124.98850006 -6.41248789 124.98850006 -4 141 C-8.32700169 137.12428512 -9.66743935 132.09953492 -10.27642632 126.42364883 C-10.39476644 123.56882543 -10.41694541 120.72882439 -10.40405273 117.87158203 C-10.41091599 116.79553711 -10.41777924 115.71949219 -10.42485046 114.61083984 C-10.44305595 111.07636072 -10.43928947 107.54232817 -10.43359375 104.0078125 C-10.43815875 101.53595842 -10.44346527 99.06410562 -10.44947815 96.59225464 C-10.45839719 91.4193607 -10.45599999 86.24662124 -10.44604492 81.07373047 C-10.43456107 74.46431722 -10.45476474 67.8554387 -10.48396206 61.24609566 C-10.50236153 56.14322556 -10.502024 51.0404827 -10.49632454 45.93758774 C-10.49617176 43.50167974 -10.50217972 41.06576288 -10.51461601 38.62988663 C-10.52959334 35.21532489 -10.51879821 31.80173949 -10.50170898 28.38720703 C-10.51137695 27.39361176 -10.52104492 26.40001648 -10.53100586 25.37631226 C-10.44342853 16.96512185 -8.86456429 8.476642 -2.75 2.3125 C-1.8425 1.549375 -0.935 0.78625 0 0 Z " fill="#6FD0E4" transform="translate(98,153)"/>
<path d="M0 0 C0.33 1.32 0.66 2.64 1 4 C0.01 4.495 0.01 4.495 -1 5 C-0.938125 5.763125 -0.87625 6.52625 -0.8125 7.3125 C-1 10 -1 10 -2.4140625 11.37890625 C-4.35076357 13.35853912 -4.80832172 14.97891164 -5.5625 17.625 C-6.25390625 20.0390625 -6.25390625 20.0390625 -7 22 C-7.66 22.33 -8.32 22.66 -9 23 C-11.71326144 28.63634843 -13.44839083 34.48727688 -15.19335938 40.47851562 C-16.7904418 45.7904418 -16.7904418 45.7904418 -19 48 C-19.14547834 50.58951445 -19.18649052 53.04185391 -19.125 55.625 C-19.08375 58.05875 -19.0425 60.4925 -19 63 C-12.73 63 -6.46 63 0 63 C0 62.01 0 61.02 0 60 C1.55966218 59.491217 3.12289241 58.99336531 4.6875 58.5 C5.55761719 58.2215625 6.42773438 57.943125 7.32421875 57.65625 C9.99391677 57.00149195 12.26396684 56.88168505 15 57 C12.25825823 59.74174177 8.95957453 60.83987924 5.4375 62.3125 C0.76437642 64.2922495 -3.71538722 66.29602522 -8.0625 68.9375 C-11.83633867 71.10529664 -14.59967112 71.86280958 -19 71 C-23.10491618 67.11113204 -23.84963155 63.77434771 -24.3125 58.3125 C-23.97872375 37.95214874 -13.14653506 15.14808365 0 0 Z " fill="#4CB17B" transform="translate(277,305)"/>
<path d="M0 0 C0.99 0.33 1.98 0.66 3 1 C2.95875 1.94875 2.9175 2.8975 2.875 3.875 C2.65026182 7.10244856 2.65026182 7.10244856 5 9 C5.66 8.34 6.32 7.68 7 7 C7.309375 7.969375 7.61875 8.93875 7.9375 9.9375 C8.69523342 12.84065792 8.69523342 12.84065792 10 14 C10.25749257 16.027754 10.51207223 18.05628209 10.71875 20.08984375 C10.91037786 22.08088347 10.91037786 22.08088347 12 24 C12.66 24 13.32 24 14 24 C19.92482916 37.6332574 19.92482916 37.6332574 18 44 C15.25 44.75 15.25 44.75 12 45 C9.625 43.5 9.625 43.5 8 41 C7.75 37.25 7.75 37.25 8 34 C7.34 33.67 6.68 33.34 6 33 C6 31.35 6 29.7 6 28 C5.34 28 4.68 28 4 28 C1.53266459 18.60429865 -0.76251512 9.80679167 0 0 Z " fill="#5DB985" transform="translate(227,403)"/>
<path d="M0 0 C-0.66 0 -1.32 0 -2 0 C-2 0.66 -2 1.32 -2 2 C-18.411735 8.4751014 -18.411735 8.4751014 -26.27734375 9.578125 C-26.84582031 9.71734375 -27.41429687 9.8565625 -28 10 C-28.33 10.66 -28.66 11.32 -29 12 C-30.97300116 13.05226728 -32.97676387 14.04788888 -35 15 C-35.721875 15.37125 -36.44375 15.7425 -37.1875 16.125 C-39 17 -39 17 -42 18 C-42.474375 18.495 -42.94875 18.99 -43.4375 19.5 C-45.30703696 21.29475548 -46.49910544 21.43866783 -49 22 C-55.05277806 23.88529153 -59.78837496 26.13140838 -64 31 C-65.34772903 34.12133744 -65.34772903 34.12133744 -66 37 C-68 39 -68 39 -71.3125 39.3125 C-75.75399623 40.14057557 -77.08158456 41.66466807 -80 45 C-80.99 45.495 -80.99 45.495 -82 46 C-81.67 44.35 -81.34 42.7 -81 41 C-80.01 41 -79.02 41 -78 41 C-77.979375 40.29875 -77.95875 39.5975 -77.9375 38.875 C-76.52538183 34.54450428 -73.54810726 32.60385291 -70 30 C-69.03578125 29.27941406 -68.0715625 28.55882812 -67.078125 27.81640625 C-53.50934473 18.05374664 -16.93791643 -5.64597214 0 0 Z " fill="#53B181" transform="translate(344,169)"/>
<path d="M0 0 C1.42539093 -0.01073296 1.42539093 -0.01073296 2.87957764 -0.02168274 C3.91547028 -0.02437164 4.95136292 -0.02706055 6.01864624 -0.02983093 C7.11507446 -0.03640213 8.21150269 -0.04297333 9.34115601 -0.04974365 C12.97242299 -0.06946553 16.6036486 -0.0811377 20.23495483 -0.09111023 C22.0972983 -0.09722352 22.0972983 -0.09722352 23.99726486 -0.10346031 C29.89298973 -0.12216797 35.7887015 -0.13673354 41.68444884 -0.14507228 C48.46949712 -0.1548294 55.25421785 -0.18111244 62.03915083 -0.22157317 C67.93164896 -0.25549459 73.82403827 -0.26722741 79.71662521 -0.27127647 C82.21477858 -0.27613827 84.71292856 -0.28774053 87.21101761 -0.30631447 C90.71486478 -0.33074429 94.21786441 -0.32973316 97.72177124 -0.32279968 C98.74551849 -0.33560974 99.76926575 -0.3484198 100.82403564 -0.36161804 C108.94109251 -0.30334204 115.43034438 1.67489005 122.25839233 6.08467102 C124.43410068 8.32837025 125.35063169 10.17631799 126.25839233 13.14717102 C120.48960822 10.31522246 114.85372105 7.30749558 109.25839233 4.14717102 C109.25839233 3.48717102 109.25839233 2.82717102 109.25839233 2.14717102 C69.65839233 2.47717102 30.05839233 2.80717102 -10.74160767 3.14717102 C-7.56050326 -0.03393339 -4.35383547 0.02258014 0 0 Z " fill="#6EC1DC" transform="translate(233.74160766601563,27.852828979492188)"/>
<path d="M0 0 C0.33 0 0.66 0 1 0 C1.13277344 0.94101562 1.26554688 1.88203125 1.40234375 2.8515625 C1.57894531 4.09679687 1.75554687 5.34203125 1.9375 6.625 C2.11152344 7.85476563 2.28554687 9.08453125 2.46484375 10.3515625 C2.78551946 12.53777503 3.1254336 14.72148629 3.50390625 16.8984375 C3.91985122 19.49891238 4.24600704 22.07708073 4.53100586 24.69384766 C4.61934189 25.5011734 4.70767792 26.30849915 4.7986908 27.14028931 C4.86512283 27.75399384 4.93155487 28.36769836 5 29 C15.94443969 29.04641935 26.8888558 29.08191795 37.83337402 29.10362434 C42.91580696 29.11404434 47.99817234 29.12817092 53.08056641 29.15087891 C57.98888815 29.17267094 62.89714507 29.18458204 67.80551147 29.18975449 C69.67452006 29.19343883 71.54352525 29.20063338 73.4125061 29.21146011 C76.03810182 29.2260596 78.66343248 29.22797442 81.2890625 29.22705078 C82.05511307 29.23424133 82.82116364 29.24143188 83.61042786 29.24884033 C89.75262624 29.22558653 95.44655677 28.53206594 100.8125 25.3125 C101.534375 24.879375 102.25625 24.44625 103 24 C104.485 24.495 104.485 24.495 106 25 C99.28691265 31.08373541 92.54932807 32.45627971 83.83007812 32.34057617 C82.95108856 32.34101425 82.072099 32.34145233 81.16647339 32.34190369 C78.2878323 32.33982908 75.40978818 32.31656122 72.53125 32.29296875 C70.52486489 32.28736807 68.51847565 32.2831002 66.51208496 32.28010559 C61.25130735 32.26869404 55.9907813 32.23925874 50.73010254 32.20599365 C45.35395713 32.17521303 39.97777077 32.16158321 34.6015625 32.14648438 C24.06759829 32.11438541 13.53382013 32.06323389 3 32 C2.50770096 30.73556221 2.0199832 29.46934017 1.53417969 28.20239258 C1.12604034 27.14499626 1.12604034 27.14499626 0.70965576 26.0662384 C-2.09854119 17.8898736 -1.09671837 8.41942256 0 0 Z " fill="#65BADC" transform="translate(250,392)"/>
<path d="M0 0 C0.66 0 1.32 0 2 0 C0.70020121 18.29979879 0.70020121 18.29979879 -2 21 C-4.96046283 21.11130441 -7.89780737 21.15740376 -10.85913086 21.16113281 C-11.7893103 21.16609772 -12.71948975 21.17106262 -13.67785645 21.17617798 C-16.77352629 21.19085113 -19.86914476 21.19761291 -22.96484375 21.203125 C-25.11422223 21.20887569 -27.26360069 21.21463344 -29.41297913 21.22039795 C-33.93165324 21.23092495 -38.45030948 21.23675533 -42.96899414 21.24023438 C-48.74237025 21.24569871 -54.51550807 21.26967532 -60.28880978 21.29820633 C-64.73538381 21.31689628 -69.18190144 21.32204186 -73.62851143 21.32357025 C-75.75544082 21.32658695 -77.88236945 21.3345821 -80.00926018 21.34775543 C-82.99845902 21.36493583 -85.98708929 21.36290559 -88.97631836 21.35644531 C-89.84581619 21.3656601 -90.71531403 21.37487488 -91.61116028 21.3843689 C-100.74605076 21.32296253 -108.36960497 19.45591095 -115 13 C-114.67 12.34 -114.34 11.68 -114 11 C-112.515 11.99 -112.515 11.99 -111 13 C-109.35008418 13.70710678 -107.6792238 14.36562656 -106 15 C-104.23372253 15.76199455 -104.23372253 15.76199455 -102.4317627 16.53938293 C-97.68481606 18.30840912 -93.30363604 18.44067124 -88.27929688 18.43237305 C-87.34178589 18.4425647 -86.4042749 18.45275635 -85.43835449 18.46325684 C-82.36509113 18.49325148 -79.29214016 18.50263211 -76.21875 18.51171875 C-74.07782974 18.52857545 -71.93691933 18.54672702 -69.79602051 18.56611633 C-64.18028843 18.61351462 -58.56459626 18.64338984 -52.94873047 18.66955566 C-47.21053185 18.6994125 -41.47247055 18.74592524 -35.734375 18.79101562 C-24.48965531 18.87693306 -13.24490728 18.94432978 -2 19 C-1.93941406 17.87980469 -1.87882812 16.75960938 -1.81640625 15.60546875 C-1.73198576 14.13280016 -1.64733851 12.66014456 -1.5625 11.1875 C-1.52318359 10.44951172 -1.48386719 9.71152344 -1.44335938 8.95117188 C-1.25618965 5.76928658 -1.01279207 3.03837622 0 0 Z " fill="#83D3E9" transform="translate(209,283)"/>
<path d="M0 0 C0.99 0.33 1.98 0.66 3 1 C-0.13428432 4.18661931 -3.34064968 7.25039362 -6.65551758 10.24804688 C-16.27627913 18.96867824 -24.02097078 28.03030248 -31 39 C-31.99 38.67 -32.98 38.34 -34 38 C-34 39.32 -34 40.64 -34 42 C-34.66 42 -35.32 42 -36 42 C-36.66 44.97 -37.32 47.94 -38 51 C-38.66 50.67 -39.32 50.34 -40 50 C-41.24372971 44.94216583 -41.24372971 44.94216583 -41 42 C-38.8125 40 -38.8125 40 -36 38 C-34.4373529 35.4320831 -33.19692293 32.75492876 -32 30 C-31.01 30 -30.02 30 -29 30 C-28.7215625 29.42765625 -28.443125 28.8553125 -28.15625 28.265625 C-27.01726208 26.03382434 -25.80063617 23.89129126 -24.5 21.75 C-24.0771875 21.04359375 -23.654375 20.3371875 -23.21875 19.609375 C-22.61546875 18.81273437 -22.61546875 18.81273437 -22 18 C-21.34 18 -20.68 18 -20 18 C-19.67 17.01 -19.34 16.02 -19 15 C-18.34 15 -17.68 15 -17 15 C-16.67 14.01 -16.34 13.02 -16 12 C-14.44140625 10.39453125 -14.44140625 10.39453125 -12.5625 8.8125 C-11.94503906 8.28269531 -11.32757813 7.75289063 -10.69140625 7.20703125 C-9 6 -9 6 -7 6 C-6.67 5.01 -6.34 4.02 -6 3 C-2.9375 1.8125 -2.9375 1.8125 0 1 C0 0.67 0 0.34 0 0 Z " fill="#5EB788" transform="translate(282,282)"/>
<path d="M0 0 C0.99 0.495 0.99 0.495 2 1 C2 2.32 2 3.64 2 5 C2.66 5 3.32 5 4 5 C4.07347656 6.82724609 4.07347656 6.82724609 4.1484375 8.69140625 C4.22352273 10.31512437 4.29906802 11.93882126 4.375 13.5625 C4.4059375 14.36236328 4.436875 15.16222656 4.46875 15.98632812 C4.71240158 20.96088129 5.57263872 25.20384733 7 30 C7.4224228 32.73993819 7.67714431 35.49054341 7.9375 38.25 C8.56655171 44.30478688 9.63045412 49.90899701 11.40234375 55.75 C12.14495756 58.54572259 12.23322819 61.12351894 12 64 C12.66 64 13.32 64 14 64 C14 65.65 14 67.3 14 69 C14.99 69.33 15.98 69.66 17 70 C16.67 71.65 16.34 73.3 16 75 C8.1450865 67.1450865 6.83225486 50.29189464 4.75 39.8125 C4.38116699 37.96253418 4.38116699 37.96253418 4.00488281 36.07519531 C1.71687587 24.18071509 -0.51478768 12.15470916 0 0 Z " fill="#84C2A0" transform="translate(219,367)"/>
<path d="M0 0 C-6.79809815 2.67098914 -13.72371483 4.8854995 -20.70678711 7.01660156 C-22.0201001 7.42000055 -23.33166899 7.82912502 -24.64135742 8.24414062 C-33.41873324 11.02395551 -41.7604515 12.73973103 -51 13 C-48.41495396 11.01776932 -45.95950142 9.37405423 -43 8 C-43 7.67 -43 7.34 -43 7 C-40.03 7 -37.06 7 -34 7 C-34 6.34 -34 5.68 -34 5 C-35.65 5 -37.3 5 -39 5 C-39 4.34 -39 3.68 -39 3 C-37.99582031 3.02320313 -36.99164063 3.04640625 -35.95703125 3.0703125 C-26.1569725 3.22686296 -16.21217564 3.25755756 -6.8828125 -0.1328125 C-3.86845864 -1.03956935 -2.89486784 -0.88158707 0 0 Z " fill="#0898D8" transform="translate(363,149)"/>
<path d="M0 0 C0.66 0.33 1.32 0.66 2 1 C1.67 1.99 1.34 2.98 1 4 C0.34 4.309375 -0.32 4.61875 -1 4.9375 C-1.99 5.4634375 -1.99 5.4634375 -3 6 C-3.34300951 7.33087691 -3.67521271 8.66455921 -4 10 C-6.08325959 12.85246313 -8.25760271 15.57971273 -10.49414062 18.31054688 C-13.35357147 21.71652124 -13.35357147 21.71652124 -14 26 C-14.99 26 -15.98 26 -17 26 C-17.2475 27.11375 -17.495 28.2275 -17.75 29.375 C-19 33 -19 33 -21 34.25 C-21.66 34.4975 -22.32 34.745 -23 35 C-23.66 35.99 -24.32 36.98 -25 38 C-26.20931159 30.3410266 -20.90805008 24.66029318 -16.69140625 18.78125 C-11.64065356 11.96572839 -6.21025324 5.80523672 0 0 Z " fill="#52B27F" transform="translate(265,206)"/>
<path d="M0 0 C-1.98077975 1.98077975 -3.14629542 2.6162516 -5.67578125 3.6640625 C-6.41570312 3.97794922 -7.155625 4.29183594 -7.91796875 4.61523438 C-8.70816406 4.94845703 -9.49835938 5.28167969 -10.3125 5.625 C-17.50449608 8.71963293 -24.05406138 12.23751505 -30.59375 16.53125 C-33 18 -33 18 -35 18 C-35 17.34 -35 16.68 -35 16 C-35.66 15.67 -36.32 15.34 -37 15 C-34.75 12.5 -34.75 12.5 -32 10 C-30.68 10 -29.36 10 -28 10 C-27.67 9.01 -27.34 8.02 -27 7 C-24.92578125 6.19140625 -24.92578125 6.19140625 -22.3125 5.5625 C-18.84656821 4.64216783 -16.99180515 3.99389745 -14.0625 1.8125 C-9.50933324 -0.88223135 -5.1673359 -0.33100372 0 0 Z " fill="#23A8DB" transform="translate(308,166)"/>
<path d="M0 0 C1.47231079 -0.002062 1.47231079 -0.002062 2.97436523 -0.00416565 C4.0446698 -0.00057037 5.11497437 0.0030249 6.2177124 0.00672913 C7.34971069 0.0065831 8.48170898 0.00643707 9.64801025 0.00628662 C13.39229239 0.00698368 17.13652488 0.01476648 20.88079834 0.02259827 C23.4758298 0.02446318 26.07086162 0.02588674 28.66589355 0.02688599 C34.79981529 0.03031494 40.93371652 0.03819768 47.06763053 0.04823548 C54.05186846 0.05941645 61.03610724 0.06491207 68.02035189 0.06993091 C82.38530195 0.08038082 96.75023701 0.0979679 111.11517334 0.12025452 C110.78517334 0.78025452 110.45517334 1.44025452 110.11517334 2.12025452 C109.54495264 2.11933272 108.97473194 2.11841093 108.38723183 2.1174612 C94.52515451 2.09539585 80.66308026 2.0789018 66.80098915 2.06844234 C60.09744258 2.06328171 53.39390771 2.05624344 46.69036865 2.04481506 C40.22595469 2.03398158 33.76155292 2.02797669 27.29713058 2.02537727 C24.82587873 2.02352386 22.35462758 2.01990484 19.88338089 2.01452446 C16.43279813 2.00730795 12.98226629 2.00626384 9.53167725 2.00672913 C8.50093582 2.00313385 7.4701944 1.99953857 6.40821838 1.99583435 C5.47149796 1.99720901 4.53477753 1.99858368 3.56967163 2 C2.34460876 1.99861731 2.34460876 1.99861731 1.09479713 1.99720669 C-0.9611124 1.9955373 -0.9611124 1.9955373 -2.88482666 3.12025452 C-4.88442678 3.16024652 -6.88529908 3.16372251 -8.88482666 3.12025452 C-8.88482666 2.46025452 -8.88482666 1.80025452 -8.88482666 1.12025452 C-5.85126968 0.23869434 -3.15446126 -0.00341392 0 0 Z " fill="#1196CD" transform="translate(231.88482666015625,29.879745483398438)"/>
<path d="M0 0 C0 0.66 0 1.32 0 2 C-0.60328125 2.12117188 -1.2065625 2.24234375 -1.828125 2.3671875 C-3.02695312 2.61855469 -3.02695312 2.61855469 -4.25 2.875 C-5.03890625 3.03742188 -5.8278125 3.19984375 -6.640625 3.3671875 C-8.98639955 3.90190291 -8.98639955 3.90190291 -10.8984375 5.0078125 C-13.68836851 6.32499182 -16.32130764 6.60138282 -19.375 7 C-23.83268107 7.58461391 -27.74924595 8.55878128 -32 10 C-33.99197225 10.39683822 -35.9928355 10.75149404 -38 11.0625 C-38.99 11.21847656 -39.98 11.37445313 -41 11.53515625 C-42.485 11.76525391 -42.485 11.76525391 -44 12 C-46.00037418 12.33108045 -48.0004846 12.66377196 -50 13 C-50 13.66 -50 14.32 -50 15 C-52.64 15 -55.28 15 -58 15 C-55.27633114 13.18422076 -53.43894918 12.39359179 -50.36425781 11.47192383 C-49.42608215 11.18855667 -48.48790649 10.90518951 -47.52130127 10.61323547 C-46.00255402 10.16466438 -46.00255402 10.16466438 -44.453125 9.70703125 C-43.4085614 9.39674484 -42.3639978 9.08645844 -41.28778076 8.76676941 C-39.07616699 8.11254864 -36.86367714 7.46128333 -34.65039062 6.81274414 C-31.27307688 5.81928819 -27.90228805 4.80553051 -24.53125 3.79101562 C-22.3805807 3.15758849 -20.22955002 2.5253868 -18.078125 1.89453125 C-17.07372375 1.58941116 -16.06932251 1.28429108 -15.03448486 0.96992493 C-9.56011195 -0.60718271 -5.57226815 -1.35139616 0 0 Z " fill="#1391C4" transform="translate(361,357)"/>
<path d="M0 0 C0.33 0 0.66 0 1 0 C1.66 6.27 2.32 12.54 3 19 C7.455 19.99 7.455 19.99 12 21 C12.33 20.01 12.66 19.02 13 18 C14.65 18 16.3 18 18 18 C18 17.34 18 16.68 18 16 C19.65 16 21.3 16 23 16 C23 15.01 23 14.02 23 13 C24.55966218 12.491217 26.12289241 11.99336531 27.6875 11.5 C28.55761719 11.2215625 29.42773438 10.943125 30.32421875 10.65625 C32.99391677 10.00149195 35.26396684 9.88168505 38 10 C35.25825823 12.74174177 31.95957453 13.83987924 28.4375 15.3125 C23.76437642 17.2922495 19.28461278 19.29602522 14.9375 21.9375 C11.16366133 24.10529664 8.40032888 24.86280958 4 24 C0.45640995 20.64291469 -0.83659948 17.64324364 -1.1328125 12.8515625 C-1.11739009 8.45617622 -0.88753747 4.32674514 0 0 Z " fill="#79C19C" transform="translate(254,352)"/>
<path d="M0 0 C0.99 0 1.98 0 3 0 C0.92823756 4.55837346 -2.1770898 7.56092547 -5.6875 11.0625 C-6.35088379 11.72427246 -7.01426758 12.38604492 -7.69775391 13.06787109 C-30.17010912 35 -30.17010912 35 -40 35 C-40 34.01 -40 33.02 -40 32 C-38.68 32 -37.36 32 -36 32 C-36 31.01 -36 30.02 -36 29 C-35.2575 28.855625 -34.515 28.71125 -33.75 28.5625 C-31.47972261 28.09812508 -29.24240521 27.58136431 -27 27 C-26.67 25.68 -26.34 24.36 -26 23 C-24.68 23 -23.36 23 -22 23 C-22 22.01 -22 21.02 -22 20 C-19.11165997 17.89229241 -17.61537605 17 -14 17 C-14 15.68 -14 14.36 -14 13 C-13.34 13 -12.68 13 -12 13 C-11.34 11.68 -10.68 10.36 -10 9 C-9.34 9 -8.68 9 -8 9 C-7.505 8.505 -7.01 8.01 -6.5 7.5 C-6.005 7.005 -5.51 6.51 -5 6 C-4.34 6 -3.68 6 -3 6 C-3.495 4.02 -3.495 4.02 -4 2 C-3.01 2.33 -2.02 2.66 -1 3 C-0.67 2.01 -0.34 1.02 0 0 Z " fill="#389F6F" transform="translate(422,296)"/>
<path d="M0 0 C0.99 0.66 1.98 1.32 3 2 C3.38768005 3.95751953 3.38768005 3.95751953 3.40405273 6.3828125 C3.41673691 7.29135986 3.42942108 8.19990723 3.44248962 9.13598633 C3.43955399 10.12236084 3.43661835 11.10873535 3.43359375 12.125 C3.4388356 13.14166748 3.44407745 14.15833496 3.44947815 15.20581055 C3.45591386 17.36457404 3.45454144 19.52337254 3.44604492 21.68212891 C3.43760479 24.95931196 3.46616168 28.23471124 3.49804688 31.51171875 C3.49966089 33.61197865 3.49907754 35.7122416 3.49609375 37.8125 C3.50732773 38.78268066 3.51856171 39.75286133 3.53013611 40.75244141 C3.45202825 48.52717066 1.90998536 55.60501708 -3.25 61.625 C-4.11625 62.305625 -4.11625 62.305625 -5 63 C-4.505 60.03 -4.505 60.03 -4 57 C-2.515 56.505 -2.515 56.505 -1 56 C-1 54.35 -1 52.7 -1 51 C-0.67 51 -0.34 51 0 51 C0.33 34.83 0.66 18.66 1 2 C-0.32 1.67 -1.64 1.34 -3 1 C-2.01 0.67 -1.02 0.34 0 0 Z " fill="#75BED7" transform="translate(361,354)"/>
<path d="M0 0 C0 3.47525973 -0.5352987 4.04590322 -2.625 6.6875 C-3.17027344 7.38488281 -3.71554688 8.08226562 -4.27734375 8.80078125 C-4.84582031 9.52652344 -5.41429687 10.25226563 -6 11 C-7.53990185 13.10859462 -9.0755061 15.22012138 -10.60546875 17.3359375 C-12 19 -12 19 -15 21 C-13.39970226 16.08479981 -10.55282323 12.34409627 -7.5 8.25 C-7.00113281 7.56550781 -6.50226563 6.88101562 -5.98828125 6.17578125 C-2.26221546 1.13110773 -2.26221546 1.13110773 0 0 Z M-21 5 C-20.34 5 -19.68 5 -19 5 C-19.33 12.26 -19.66 19.52 -20 27 C-18.68 25.02 -17.36 23.04 -16 21 C-15.34 21.99 -14.68 22.98 -14 24 C-16.31537955 27.72114571 -18.28579473 30.61229661 -22 33 C-23.44007731 25.25958445 -24.78367026 16.10372875 -21 9 C-21 7.68 -21 6.36 -21 5 Z " fill="#40BA79" transform="translate(255,291)"/>
<path d="M0 0 C0.66 0.33 1.32 0.66 2 1 C2.02721176 2.89575251 2.04649136 4.79161979 2.0625 6.6875 C2.07410156 7.74324219 2.08570313 8.79898437 2.09765625 9.88671875 C2 13 2 13 1.43359375 15.76953125 C0.75952277 18.02710688 0.75952277 18.02710688 2 20 C1.67 20.99 1.34 21.98 1 23 C0.91455709 24.33528807 0.88225375 25.67443888 0.88647461 27.01245117 C0.88655014 27.81305466 0.88662567 28.61365814 0.88670349 29.43852234 C0.89186478 30.29798965 0.89702606 31.15745697 0.90234375 32.04296875 C0.9037587 32.9265657 0.90517365 33.81016266 0.90663147 34.72053528 C0.91222931 37.54289128 0.92478139 40.36516797 0.9375 43.1875 C0.94251528 45.10091031 0.94707814 47.01432187 0.95117188 48.92773438 C0.96219803 53.61852014 0.97946117 58.30924663 1 63 C0.01 62.34 -0.98 61.68 -2 61 C-2.29318879 58.10733208 -2.39563475 55.43290528 -2.36328125 52.5390625 C-2.36377975 51.67928802 -2.36427826 50.81951355 -2.36479187 49.9336853 C-2.36244481 48.0993216 -2.35267937 46.26495508 -2.33618164 44.43066406 C-2.3131183 41.69825302 -2.31554886 38.96685495 -2.32226562 36.234375 C-2.30113175 24.05214661 -1.42712061 12.09499017 0 0 Z " fill="#6EB990" transform="translate(221,306)"/>
<path d="M0 0 C1.00549393 -0.00043808 2.01098785 -0.00087616 3.04695129 -0.00132751 C6.35848653 0.00075647 9.66951062 0.02406965 12.98095703 0.04760742 C15.28166426 0.05320475 17.58237507 0.0574742 19.88308716 0.06047058 C25.92970707 0.07190852 31.97610977 0.10136693 38.02264404 0.13458252 C44.19621849 0.1653059 50.36982812 0.17898078 56.54345703 0.1940918 C68.65032314 0.22623741 80.75702825 0.27742127 92.86376953 0.34057617 C92.86376953 0.67057617 92.86376953 1.00057617 92.86376953 1.34057617 C91.5925676 1.34866302 90.32136566 1.35674988 89.01164246 1.36508179 C77.04826024 1.44247153 65.08499276 1.53019257 53.12176037 1.62810326 C46.97092647 1.67810945 40.8201101 1.72443912 34.66918945 1.76245117 C28.73635861 1.79924931 22.80367301 1.84559435 16.87096596 1.89863968 C14.60431776 1.91721275 12.33763839 1.93230986 10.07094383 1.94392014 C6.90301932 1.96073269 3.73542956 1.98975576 0.56762695 2.02172852 C-0.37536255 2.0238887 -1.31835205 2.02604889 -2.28991699 2.02827454 C-3.1522847 2.03943802 -4.0146524 2.0506015 -4.90315247 2.06210327 C-5.65257016 2.06763403 -6.40198786 2.07316479 -7.17411518 2.07886314 C-9.45737422 2.23702168 -9.45737422 2.23702168 -12.13623047 4.34057617 C-14.32373047 3.96557617 -14.32373047 3.96557617 -16.13623047 3.34057617 C-10.69841658 -0.05727737 -6.19895862 -0.07101119 0 0 Z " fill="#4DABC8" transform="translate(116.13623046875,148.659423828125)"/>
<path d="M0 0 C0.33 0 0.66 0 1 0 C1.00808685 1.08328079 1.01617371 2.16656158 1.02450562 3.28266907 C1.10191305 13.48012854 1.18963859 23.67745369 1.28752708 33.87473774 C1.33752206 39.11755528 1.38385181 44.36035236 1.421875 49.60327148 C1.45868736 54.66079716 1.50503624 59.71815292 1.55806351 64.77553368 C1.57662901 66.70724705 1.59172896 68.63899687 1.60334396 70.57076454 C1.62016955 73.27171947 1.64919547 75.97228343 1.68115234 78.6730957 C1.68331253 79.47582413 1.68547272 80.27855255 1.68769836 81.10560608 C1.7456129 84.92467387 1.83106044 86.74659066 4 90 C4.38499891 91.65549531 4.72793135 93.3222433 5 95 C3.35 95 1.7 95 0 95 C0 63.65 0 32.3 0 0 Z " fill="#07AFE6" transform="translate(211,56)"/>
<path d="M0 0 C0.66 0.33 1.32 0.66 2 1 C2 34.99 2 68.98 2 104 C1.01 103.67 0.02 103.34 -1 103 C-0.34 103 0.32 103 1 103 C1 70.33 1 37.66 1 4 C0.34 4 -0.32 4 -1 4 C-0.67 2.68 -0.34 1.36 0 0 Z " fill="#168CC0" transform="translate(360,44)"/>
<path d="M0 0 C0.33 0.66 0.66 1.32 1 2 C-0.65 2.33 -2.3 2.66 -4 3 C-4.33 4.65 -4.66 6.3 -5 8 C-7.57534185 8.51506837 -10.06926534 9.00644329 -12.6875 9.25 C-15.27172814 9.78740664 -15.27172814 9.78740664 -16.3125 12.5625 C-16.539375 13.366875 -16.76625 14.17125 -17 15 C-23.0546875 15.9765625 -23.0546875 15.9765625 -25 16 C-25.66 15.34 -26.32 14.68 -27 14 C-25.99839844 13.40832031 -24.99679687 12.81664062 -23.96484375 12.20703125 C-22.62229984 11.40901564 -21.27985735 10.61082939 -19.9375 9.8125 C-19.28072266 9.42513672 -18.62394531 9.03777344 -17.94726562 8.63867188 C-14.5766755 6.62960091 -11.34207225 4.55493276 -8.1875 2.21875 C-4.98268843 -0.01205021 -3.78098426 -0.5728764 0 0 Z " fill="#3A9E6E" transform="translate(471,120)"/>
<path d="M0 0 C-1.05058594 0.58007812 -2.10117187 1.16015625 -3.18359375 1.7578125 C-10.10146984 5.60061936 -16.94333468 9.40558011 -23.3984375 14.00390625 C-25 15 -25 15 -27 15 C-27 14.01 -27 13.02 -27 12 C-26.34 11.67 -25.68 11.34 -25 11 C-24.67 10.01 -24.34 9.02 -24 8 C-22.35 8 -20.7 8 -19 8 C-18.67 7.01 -18.34 6.02 -18 5 C-15 3 -15 3 -12 3 C-11.67 2.01 -11.34 1.02 -11 0 C-6.48177403 -1.79024048 -4.20003215 -2.47551564 0 0 Z " fill="#52B481" transform="translate(312,268)"/>
<path d="M0 0 C0.99 0.33 1.98 0.66 3 1 C2.53851563 1.42667969 2.07703125 1.85335937 1.6015625 2.29296875 C-3.76971476 7.44132739 -8.25188095 13.01693096 -12.703125 18.94921875 C-14.75492632 21.67448547 -16.85478916 24.3480077 -19 27 C-18.4140625 20.84765625 -18.4140625 20.84765625 -18 19 C-17.34 18.67 -16.68 18.34 -16 18 C-15.87625 17.360625 -15.7525 16.72125 -15.625 16.0625 C-15.41875 15.381875 -15.2125 14.70125 -15 14 C-13.66666667 13.33333333 -12.33333333 12.66666667 -11 12 C-10.19471111 9.94999129 -10.19471111 9.94999129 -10 8 C-9.34 8 -8.68 8 -8 8 C-8 7.34 -8 6.68 -8 6 C-7.01 6 -6.02 6 -5 6 C-5 5.34 -5 4.68 -5 4 C-2.6875 1.8125 -2.6875 1.8125 0 0 Z " fill="#43B3DA" transform="translate(251,199)"/>
<path d="M0 0 C0.33 1.32 0.66 2.64 1 4 C0.01 4.495 0.01 4.495 -1 5 C-0.938125 5.763125 -0.87625 6.52625 -0.8125 7.3125 C-1.04212105 10.60373501 -1.75688317 10.75688317 -4 13 C-4.74386068 15.30988315 -5.42190703 17.64315944 -6 20 C-7.32 19.67 -8.64 19.34 -10 19 C-10 19.66 -10 20.32 -10 21 C-10.99 21.33 -11.98 21.66 -13 22 C-11.71687876 17.68693405 -10.07895544 14.20416086 -7.625 10.4375 C-7.03976562 9.52871094 -6.45453125 8.61992187 -5.8515625 7.68359375 C-4.01218661 5.01766287 -2.05458146 2.50260693 0 0 Z M-9 20 C-8.34 20.66 -7.68 21.32 -7 22 C-7.66 22 -8.32 22 -9 22 C-9 21.34 -9 20.68 -9 20 Z " fill="#3FB074" transform="translate(277,305)"/>
<path d="M0 0 C0 0.66 0 1.32 0 2 C-1.65532623 3.01866229 -3.32260138 4.01810813 -5 5 C-5.33 5.66 -5.66 6.32 -6 7 C-7.86314955 7.90404768 -9.76700648 8.72518835 -11.6875 9.5 C-12.72261719 9.9228125 -13.75773437 10.345625 -14.82421875 10.78125 C-23.98087298 14.29524277 -23.98087298 14.29524277 -29 14 C-25.5177439 9.80839543 -21.57297707 8.32912354 -16.625 6.4375 C-15.13717284 5.855026 -13.65017647 5.27042497 -12.1640625 4.68359375 C-11.45540039 4.40499512 -10.74673828 4.12639648 -10.01660156 3.83935547 C-8.1697454 3.0706519 -6.37355125 2.18305377 -4.5859375 1.28515625 C-2 0 -2 0 0 0 Z " fill="#3EA172" transform="translate(444,135)"/>
<path d="M0 0 C0.03738281 0.73863281 0.07476562 1.47726562 0.11328125 2.23828125 C0.52947294 8.66069024 1.53043128 14.41306077 3.3671875 20.57421875 C4.11479537 23.4400489 4.23905361 26.0516722 4 29 C4.66 29 5.32 29 6 29 C6 30.65 6 32.3 6 34 C6.99 34.33 7.98 34.66 9 35 C8.505 37.475 8.505 37.475 8 40 C5.11101957 37.11101957 4.3067667 33.55331114 3.0625 29.75 C2.66490479 28.54404175 2.66490479 28.54404175 2.25927734 27.3137207 C-0.47238913 18.83413772 -3.29897399 9.98582952 -3 1 C-1 0 -1 0 0 0 Z " fill="#8EC9AB" transform="translate(227,402)"/>
<path d="M0 0 C0.33 0 0.66 0 1 0 C1.13277344 0.94101562 1.26554688 1.88203125 1.40234375 2.8515625 C1.57894531 4.09679687 1.75554687 5.34203125 1.9375 6.625 C2.11152344 7.85476563 2.28554687 9.08453125 2.46484375 10.3515625 C2.79655177 12.61298796 3.14818978 14.87170459 3.53125 17.125 C3.97951585 19.87436386 4.30022086 22.6023348 4.5625 25.375 C4.64628906 26.24898438 4.73007813 27.12296875 4.81640625 28.0234375 C4.87699219 28.67570312 4.93757812 29.32796875 5 30 C4.01 30.33 3.02 30.66 2 31 C-1.33561305 20.33357636 -1.02411631 10.99382684 0 0 Z " fill="#26AADB" transform="translate(250,392)"/>
<path d="M0 0 C0.21718696 2.67863922 0.35440053 4.41628148 -1.0625 6.75 C-3 8 -3 8 -6.375 8.375 C-10.79841681 9.13765807 -12.10189702 10.68788231 -15 14 C-15.99 14.495 -15.99 14.495 -17 15 C-16.67 13.35 -16.34 11.7 -16 10 C-15.01 10 -14.02 10 -13 10 C-12.938125 9.236875 -12.87625 8.47375 -12.8125 7.6875 C-12 5 -12 5 -9.75 3.3125 C-2.80952381 0 -2.80952381 0 0 0 Z " fill="#3BB170" transform="translate(279,200)"/>
<path d="M0 0 C0.99 0 1.98 0 3 0 C1.51358525 4.26847444 -0.72051246 7.77444323 -3.3125 11.4375 C-3.69083984 11.98470703 -4.06917969 12.53191406 -4.45898438 13.09570312 C-7.12119698 16.90208155 -9.98737942 20.46483638 -13 24 C-13.75 22.3125 -13.75 22.3125 -14 20 C-12.1875 17.25 -12.1875 17.25 -10 15 C-9.34 15 -8.68 15 -8 15 C-7.814375 13.8553125 -7.814375 13.8553125 -7.625 12.6875 C-7 10 -7 10 -5 7 C-4.01 7 -3.02 7 -2 7 C-1.855625 6.030625 -1.71125 5.06125 -1.5625 4.0625 C-1 1 -1 1 0 0 Z " fill="#2F9766" transform="translate(439,272)"/>
<path d="M0 0 C0.66 0.33 1.32 0.66 2 1 C1.360625 1.763125 0.72125 2.52625 0.0625 3.3125 C-2.14232781 5.88246713 -2.14232781 5.88246713 -3 9 C-3.78375 9.0825 -4.5675 9.165 -5.375 9.25 C-8.08238172 9.69837439 -8.08238172 9.69837439 -9 11.6875 C-9.33 12.450625 -9.66 13.21375 -10 14 C-12.97835155 18.02479939 -15.11304221 20.60372635 -20 22 C-18.37121118 18.06454493 -15.67797211 15.19779433 -12.8125 12.125 C-12.32289795 11.59487305 -11.8332959 11.06474609 -11.32885742 10.51855469 C-7.77130839 6.71245094 -4.07251791 3.25801433 0 0 Z " fill="#6EBC94" transform="translate(298,283)"/>
<path d="M0 0 C1.22096375 0.00007553 2.44192749 0.00015106 3.69989014 0.00022888 C5.67037323 0.00797081 5.67037323 0.00797081 7.68066406 0.01586914 C9.04258167 0.01773518 10.40449994 0.01915821 11.76641846 0.02015686 C15.34370795 0.02396736 18.92095658 0.03378507 22.49822998 0.04486084 C26.15148363 0.05510655 29.80474392 0.05966124 33.45800781 0.06469727 C40.62078682 0.0754087 47.78353221 0.09246745 54.94628906 0.11352539 C54.94628906 0.44352539 54.94628906 0.77352539 54.94628906 1.11352539 C53.88180038 1.12898659 53.88180038 1.12898659 52.79580688 1.14476013 C46.11521873 1.24264727 39.43471931 1.3451491 32.754282 1.45286465 C29.31961923 1.50808162 25.88494793 1.56149962 22.45019531 1.61083984 C18.50349017 1.66761246 14.55693064 1.73214937 10.61035156 1.79711914 C8.75562729 1.82218788 8.75562729 1.82218788 6.86343384 1.84776306 C5.72240204 1.86770828 4.58137024 1.8876535 3.40576172 1.90820312 C2.39760406 1.92374741 1.38944641 1.93929169 0.35073853 1.95530701 C-2.06637538 1.95839089 -2.06637538 1.95839089 -4.05371094 3.11352539 C-6.05331106 3.15351739 -8.05418336 3.15699338 -10.05371094 3.11352539 C-10.05371094 2.45352539 -10.05371094 1.79352539 -10.05371094 1.11352539 C-6.6510303 0.07926749 -3.5471036 -0.00732873 0 0 Z " fill="#17A0D2" transform="translate(233.0537109375,29.886474609375)"/>
<path d="M0 0 C0.66 0.33 1.32 0.66 2 1 C-4.2299461 7.4510087 -11.33000948 13.30503362 -20 16 C-20.99 16 -21.98 16 -23 16 C-15.86359627 9.94291693 -8.36342235 4.26680413 0 0 Z " fill="#66B98E" transform="translate(291,188)"/>
<path d="M0 0 C0.99 0.33 1.98 0.66 3 1 C1 3 1 3 -1.4375 4.875 C-3.77535829 6.81371175 -5.24551412 8.55897616 -7 11 C-8.31442362 12.35197858 -9.6434836 13.69026002 -11 15 C-10.67 15.66 -10.34 16.32 -10 17 C-11.28062485 18.7074998 -12.61767557 20.37373596 -14 22 C-14.66 22 -15.32 22 -16 22 C-15.51098901 15.64285714 -15.51098901 15.64285714 -13.0625 12.5625 C-11 11 -11 11 -9 11 C-8.773125 10.46375 -8.54625 9.9275 -8.3125 9.375 C-6.3054879 5.74326382 -3.77164705 1.88582352 0 0 Z " fill="#36AE6E" transform="translate(292,292)"/>
<path d="M0 0 C0.66 0.33 1.32 0.66 2 1 C1.20446395 3.81089406 0.67553179 5.66882534 -1 8 C-3.29117591 9.14139166 -5.45835283 9.787019 -7.94140625 10.39453125 C-10.19936584 10.88013109 -10.19936584 10.88013109 -12 13 C-12.99 12.34 -13.98 11.68 -15 11 C-12.87657342 9.35210134 -10.7513551 7.70661212 -8.625 6.0625 C-8.02171875 5.59392578 -7.4184375 5.12535156 -6.796875 4.64257812 C-2.2265625 1.11328125 -2.2265625 1.11328125 0 0 Z " fill="#40AF78" transform="translate(315,271)"/>
<path d="M0 0 C2.64 0 5.28 0 8 0 C9.0625 2.375 9.0625 2.375 10 5 C9.67 5.66 9.34 6.32 9 7 C7.02 7 5.04 7 3 7 C3.66 6.01 4.32 5.02 5 4 C5.66 4 6.32 4 7 4 C7 3.34 7 2.68 7 2 C6.20335937 2.33773438 5.40671875 2.67546875 4.5859375 3.0234375 C3.52632813 3.46945312 2.46671875 3.91546875 1.375 4.375 C0.33085937 4.81585938 -0.71328125 5.25671875 -1.7890625 5.7109375 C-4.82903202 6.93136322 -7.88205905 7.9981391 -11 9 C-11 8.34 -11 7.68 -11 7 C-7.9806995 4.21295338 -4.84234369 3.28078123 -1 2 C-0.67 1.34 -0.34 0.68 0 0 Z " fill="#5CB88D" transform="translate(323,258)"/>
<path d="M0 0 C0.64324219 0.23976563 1.28648437 0.47953125 1.94921875 0.7265625 C9.82437733 3.31042337 15.97410185 2.77360865 24 1 C19.46238547 4.59879773 16.25010141 5.13795068 10.5 5.125 C9.3553125 5.12757813 8.210625 5.13015625 7.03125 5.1328125 C4 5 4 5 1 4 C0.67 8.62 0.34 13.24 0 18 C-0.33 18 -0.66 18 -1 18 C-1.02684312 15.18743719 -1.04676188 12.37512759 -1.0625 9.5625 C-1.07087891 8.76005859 -1.07925781 7.95761719 -1.08789062 7.13085938 C-1.0965143 5.08704779 -1.0522815 3.04316098 -1 1 C-0.67 0.67 -0.34 0.34 0 0 Z " fill="#82D0E5" transform="translate(249,385)"/>
<path d="M0 0 C2 1 2 1 3 2 C3 2.66 3 3.32 3 4 C1.68 4 0.36 4 -1 4 C-1.0825 4.66 -1.165 5.32 -1.25 6 C-2.24759791 9.99039163 -4.07166683 13.38549643 -6 17 C-6.99 17 -7.98 17 -9 17 C-8.39686522 9.46081528 -5.46167045 5.07155113 0 0 Z " fill="#52C5E1" transform="translate(98,153)"/>
<path d="M0 0 C-0.99 0 -1.98 0 -3 0 C-3 0.66 -3 1.32 -3 2 C-12.9674009 5.57092971 -22.50879868 7.04511221 -33 8 C-28.17861693 4.78574462 -22.62063106 3.80604195 -17.0625 2.3125 C-15.86947266 1.97927734 -14.67644531 1.64605469 -13.44726562 1.30273438 C-11.72733398 0.83770508 -11.72733398 0.83770508 -9.97265625 0.36328125 C-8.92343994 0.07751221 -7.87422363 -0.20825684 -6.79321289 -0.50268555 C-4.06576412 -0.9882911 -2.57333885 -0.92575315 0 0 Z " fill="#4CAD7D" transform="translate(378,160)"/>
<path d="M0 0 C0 3.18102406 -0.52288287 4.43637199 -1.8984375 7.23828125 C-2.29546875 8.05876953 -2.6925 8.87925781 -3.1015625 9.72460938 C-3.52179688 10.57861328 -3.94203125 11.43261719 -4.375 12.3125 C-8.13010462 19.97286895 -8.13010462 19.97286895 -11 28 C-11.33 28 -11.66 28 -12 28 C-12.34615998 22.34605369 -11.43425238 18.96993194 -9 14 C-8.34 14 -7.68 14 -7 14 C-7.103125 13.34 -7.20625 12.68 -7.3125 12 C-6.85732018 7.63027373 -4.65621984 4.44503664 -2 1 C-1.34 0.67 -0.68 0.34 0 0 Z " fill="#55BEDC" transform="translate(231,226)"/>
<path d="M0 0 C0.33 0 0.66 0 1 0 C1.125 5.75 1.125 5.75 0 8 C-0.66 8 -1.32 8 -2 8 C-2.06058594 8.62648438 -2.12117188 9.25296875 -2.18359375 9.8984375 C-2.26738281 10.71570313 -2.35117187 11.53296875 -2.4375 12.375 C-2.51871094 13.18710937 -2.59992188 13.99921875 -2.68359375 14.8359375 C-3 17 -3 17 -4 19 C-4.66 19 -5.32 19 -6 19 C-6 20.98 -6 22.96 -6 25 C-6.66 25 -7.32 25 -8 25 C-7.48256033 19.19173967 -6.28511523 14.47130732 -4 9.125 C-3.72671875 8.46242188 -3.4534375 7.79984375 -3.171875 7.1171875 C-2.17462122 4.71204604 -1.16471226 2.32942452 0 0 Z " fill="#82C2A0" transform="translate(263,327)"/>
<path d="M0 0 C0.66 0.33 1.32 0.66 2 1 C1.34 3.31 0.68 5.62 0 8 C-0.66 8 -1.32 8 -2 8 C-2 9.32 -2 10.64 -2 12 C-2.66 12 -3.32 12 -4 12 C-4.66 14.97 -5.32 17.94 -6 21 C-6.66 20.67 -7.32 20.34 -8 20 C-9.24372971 14.94216583 -9.24372971 14.94216583 -9 12 C-6.8125 10 -6.8125 10 -4 8 C-2.4373529 5.4320831 -1.19692293 2.75492876 0 0 Z " fill="#53B580" transform="translate(250,312)"/>
<path d="M0 0 C0.8971875 0.309375 0.8971875 0.309375 1.8125 0.625 C0.90886719 1.31207031 0.00523437 1.99914062 -0.92578125 2.70703125 C-2.11727653 3.61707095 -3.30867786 4.52723366 -4.5 5.4375 C-5.39235352 6.11522461 -5.39235352 6.11522461 -6.30273438 6.80664062 C-9.09155661 8.94110234 -11.80474973 11.03580206 -14.1875 13.625 C-14.8475 13.295 -15.5075 12.965 -16.1875 12.625 C-15.5275 10.975 -14.8675 9.325 -14.1875 7.625 C-13.1975 7.625 -12.2075 7.625 -11.1875 7.625 C-11.1875 6.635 -11.1875 5.645 -11.1875 4.625 C-9.5375 4.625 -7.8875 4.625 -6.1875 4.625 C-5.8575 3.635 -5.5275 2.645 -5.1875 1.625 C-2.1875 -0.375 -2.1875 -0.375 0 0 Z " fill="#60BCDB" transform="translate(271.1875,184.375)"/>
<path d="M0 0 C-0.33 0.66 -0.66 1.32 -1 2 C-3.57349485 2.62036958 -6.08221383 3.12636263 -8.6875 3.5625 C-9.75000977 3.75102539 -9.75000977 3.75102539 -10.83398438 3.94335938 C-12.88776102 4.30556744 -14.94319851 4.65542358 -17 5 C-18.16144531 5.19464844 -19.32289063 5.38929688 -20.51953125 5.58984375 C-21.33808594 5.72519531 -22.15664063 5.86054688 -23 6 C-23 6.66 -23 7.32 -23 8 C-25.64 8 -28.28 8 -31 8 C-26.42606946 4.95071297 -21.30905659 3.84440857 -16.0625 2.3125 C-14.96486328 1.97927734 -13.86722656 1.64605469 -12.73632812 1.30273438 C-11.15174805 0.83770508 -11.15174805 0.83770508 -9.53515625 0.36328125 C-8.569729 0.07751221 -7.60430176 -0.20825684 -6.60961914 -0.50268555 C-3.96649514 -1.00638501 -2.50731424 -0.88708963 0 0 Z " fill="#7FCAE1" transform="translate(334,364)"/>
<path d="M0 0 C0.98484375 0.00902344 1.9696875 0.01804687 2.984375 0.02734375 C4.10585938 0.04474609 4.10585938 0.04474609 5.25 0.0625 C2.34530129 1.99896581 0.95065112 2.47127313 -2.375 3.0625 C-7.19560559 3.95572986 -11.96775368 4.98263793 -16.75 6.0625 C-16.75 4.7425 -16.75 3.4225 -16.75 2.0625 C-15.6775 1.918125 -14.605 1.77375 -13.5 1.625 C-10.03684873 1.18660151 -10.03684873 1.18660151 -7.875 0.53125 C-5.20796848 -0.05706578 -2.72838181 -0.03248074 0 0 Z " fill="#58B485" transform="translate(294.75,358.9375)"/>
<path d="M0 0 C0.33 0 0.66 0 1 0 C2.23446149 3.35068119 2.28859558 5.3682859 0.80078125 8.625 C-0.70371061 11.18955755 -2.1697639 13.65544439 -4 16 C-4.66 16 -5.32 16 -6 16 C-6.33 17.32 -6.66 18.64 -7 20 C-7.33 19.34 -7.66 18.68 -8 18 C-6.94838173 15.27401745 -5.83965896 12.65185086 -4.625 10 C-4.295 9.26265625 -3.965 8.5253125 -3.625 7.765625 C-2.45432498 5.15777983 -1.27852368 2.55704736 0 0 Z " fill="#80C59F" transform="translate(239,240)"/>
<path d="M0 0 C-0.763125 0.433125 -1.52625 0.86625 -2.3125 1.3125 C-4.9516134 2.81855168 -4.9516134 2.81855168 -6.5625 4.625 C-8.35309483 6.33774288 -9.57671817 6.57236203 -12 7 C-12.9075 7.185625 -13.815 7.37125 -14.75 7.5625 C-15.4925 7.706875 -16.235 7.85125 -17 8 C-16.34 7.67 -15.68 7.34 -15 7 C-14.9175 6.38125 -14.835 5.7625 -14.75 5.125 C-14 3 -14 3 -11.3125 1.3125 C-3.53684211 -1.76842105 -3.53684211 -1.76842105 0 0 Z " fill="#4AAE78" transform="translate(307,184)"/>
<path d="M0 0 C0.85715607 0.00424484 1.71431213 0.00848969 2.59744263 0.01286316 C5.31789414 0.02956989 8.03758732 0.06720656 10.7578125 0.10546875 C12.60936425 0.12052597 14.46092769 0.13421255 16.3125 0.14648438 C20.83622683 0.1794471 25.35939137 0.23117338 29.8828125 0.29296875 C29.8828125 0.62296875 29.8828125 0.95296875 29.8828125 1.29296875 C28.74739014 1.31278809 27.61196777 1.33260742 26.44213867 1.35302734 C22.23195106 1.42906559 18.02210987 1.51778561 13.81225586 1.61035156 C11.98973426 1.6486487 10.16713687 1.6835003 8.34448242 1.71484375 C5.72547309 1.76047854 3.10698576 1.81847497 0.48828125 1.87890625 C-0.73529839 1.89623306 -0.73529839 1.89623306 -1.9835968 1.91390991 C-5.85083254 2.01494149 -7.82878535 2.10070065 -11.1171875 4.29296875 C-13.3046875 3.91796875 -13.3046875 3.91796875 -15.1171875 3.29296875 C-9.91052815 0.11844438 -5.8984558 -0.11109326 0 0 Z " fill="#5DB3CD" transform="translate(115.1171875,148.70703125)"/>
<path d="M0 0 C3.35225936 5.02838904 6.67458372 10.91889009 5.75 17.125 C5.5025 18.07375 5.255 19.0225 5 20 C3.02 20.33 1.04 20.66 -1 21 C-1.66 20.01 -2.32 19.02 -3 18 C-0.69 18.33 1.62 18.66 4 19 C3.67 16.03 3.34 13.06 3 10 C2.01 9.67 1.02 9.34 0 9 C0 6.03 0 3.06 0 0 Z " fill="#9ECEB6" transform="translate(240,427)"/>
<path d="M0 0 C0.66 0.66 1.32 1.32 2 2 C0.90497536 10.21268478 -2.61574913 17.51846427 -6 25 C-6.33 25 -6.66 25 -7 25 C-6.37446444 17.61868038 -6.37446444 17.61868038 -4.5625 14.625 C-2.80194948 11.66727512 -2.08457276 9.03314863 -1.3125 5.6875 C-1.06113281 4.61886719 -0.80976563 3.55023438 -0.55078125 2.44921875 C-0.27814453 1.23685547 -0.27814453 1.23685547 0 0 Z " fill="#53A883" transform="translate(455,236)"/>
<path d="M0 0 C0.556875 0.28875 1.11375 0.5775 1.6875 0.875 C4.08850668 2.0430573 6.51702122 3.01835723 9 4 C14 6 14 6 19 8 C19 8.33 19 8.66 19 9 C12.63127145 9.45490918 8.35994669 8.55349016 3 5 C1.26953125 3.48828125 1.26953125 3.48828125 0 2 C0 1.34 0 0.68 0 0 Z " fill="#7ECDE3" transform="translate(94,294)"/>
<path d="M0 0 C9.41002278 -0.18451025 9.41002278 -0.18451025 14 1 C14 1.33 14 1.66 14 2 C13.195625 2.12375 12.39125 2.2475 11.5625 2.375 C10.2940625 2.684375 10.2940625 2.684375 9 3 C8.67 3.66 8.34 4.32 8 5 C5.03 4.67 2.06 4.34 -1 4 C-0.67 2.68 -0.34 1.36 0 0 Z " fill="#42B575" transform="translate(258,368)"/>
<path d="M0 0 C2.0625 0.4375 2.0625 0.4375 4 1 C-1.55027556 3.13713895 -7.11375939 5.0499344 -12.8125 6.75 C-13.56208984 6.98332031 -14.31167969 7.21664062 -15.08398438 7.45703125 C-20.64728828 9.11757057 -20.64728828 9.11757057 -24 8 C-17.16898492 4.47691742 -10.97408234 2.34114169 -3.3359375 1.359375 C-1.04557028 1.2426915 -1.04557028 1.2426915 0 0 Z " fill="#71BCD7" transform="translate(359,148)"/>
<path d="M0 0 C-2.63791114 1.38786998 -5.18028407 2.45064138 -8.0390625 3.2890625 C-8.78414063 3.50820313 -9.52921875 3.72734375 -10.296875 3.953125 C-11.06515625 4.17484375 -11.8334375 4.3965625 -12.625 4.625 C-13.40101563 4.85445313 -14.17703125 5.08390625 -14.9765625 5.3203125 C-20.73549107 7 -20.73549107 7 -23 7 C-23 6.34 -23 5.68 -23 5 C-22.195625 4.87625 -21.39125 4.7525 -20.5625 4.625 C-19.716875 4.41875 -18.87125 4.2125 -18 4 C-17.67 3.34 -17.34 2.68 -17 2 C-11.44413776 0.03052586 -5.83094895 -0.21203451 0 0 Z " fill="#57B486" transform="translate(344,346)"/>
<path d="M0 0 C-15.56036446 7.66742597 -15.56036446 7.66742597 -24 9 C-23.34 8.67 -22.68 8.34 -22 8 C-22 7.34 -22 6.68 -22 6 C-20.75336669 5.49166409 -19.50250613 4.99368855 -18.25 4.5 C-17.55390625 4.2215625 -16.8578125 3.943125 -16.140625 3.65625 C-14 3 -14 3 -10 3 C-10 2.34 -10 1.68 -10 1 C-3.375 -1.125 -3.375 -1.125 0 0 Z " fill="#41A8CE" transform="translate(346,152)"/>
<path d="M0 0 C0.66 0.33 1.32 0.66 2 1 C0.1875 3.5 0.1875 3.5 -2 6 C-2.99 6 -3.98 6 -5 6 C-6.31190936 9.93572809 -7.12167822 13.15262597 -7 17.3125 C-7 18.529375 -7 19.74625 -7 21 C-7.66 21.66 -8.32 22.32 -9 23 C-9.68828314 9.04314742 -9.68828314 9.04314742 -7.3125 5.3125 C-4.98666576 2.98666576 -3.00525678 1.34445698 0 0 Z " fill="#32AFD8" transform="translate(220,33)"/>
<path d="M0 0 C0.66 0.33 1.32 0.66 2 1 C0.02 1.66 -1.96 2.32 -4 3 C-4 3.66 -4 4.32 -4 5 C-4.99 5 -5.98 5 -7 5 C-7 5.66 -7 6.32 -7 7 C-9.95664519 8.4783226 -12.74229737 8.06032783 -16 8 C-16.33 8.66 -16.66 9.32 -17 10 C-17.66 9.34 -18.32 8.68 -19 8 C-16.39653203 6.85255669 -13.79226795 5.70698532 -11.1875 4.5625 C-10.44951172 4.23701172 -9.71152344 3.91152344 -8.95117188 3.57617188 C-8.23896484 3.26357422 -7.52675781 2.95097656 -6.79296875 2.62890625 C-6.1383667 2.34088135 -5.48376465 2.05285645 -4.80932617 1.75610352 C-3.23465413 1.09806016 -1.61905892 0.53968631 0 0 Z " fill="#59BAD8" transform="translate(301,372)"/>
<path d="M0 0 C0.33 0 0.66 0 1 0 C1.05423638 1.91635217 1.09289963 3.83314925 1.125 5.75 C1.14820313 6.81734375 1.17140625 7.8846875 1.1953125 8.984375 C0.99795833 12.03152343 0.41667094 13.37499209 -1 16 C-1.43098753 17.90485849 -1.80392764 19.82356582 -2.125 21.75 C-2.29257812 22.73484375 -2.46015625 23.7196875 -2.6328125 24.734375 C-2.75398438 25.48203125 -2.87515625 26.2296875 -3 27 C-3.66 27 -4.32 27 -5 27 C-1.80851064 8.65957447 -1.80851064 8.65957447 0 0 Z " fill="#138850" transform="translate(463,201)"/>
<path d="M0 0 C-3.3969687 3.78892663 -6.91553489 6.73832155 -12.1640625 7.18359375 C-14.11033434 7.18703239 -16.05632343 7.100535 -18 7 C-14.83918877 4.40416469 -11.64226013 2.82354846 -7.875 1.25 C-6.82054687 0.80140625 -5.76609375 0.3528125 -4.6796875 -0.109375 C-2 -1 -2 -1 0 0 Z " fill="#62BA8C" transform="translate(319,177)"/>
<path d="M0 0 C1.32 0.33 2.64 0.66 4 1 C4.66 4.3 5.32 7.6 6 11 C4.68 11 3.36 11 2 11 C1.24758891 7.34543185 0.59950296 3.68266103 0 0 Z " fill="#51BB7F" transform="translate(236,432)"/>
<path d="M0 0 C0.99 0 1.98 0 3 0 C1.44191344 10.55808656 1.44191344 10.55808656 -3 15 C-2.88529863 13.24929483 -2.75780972 11.49942464 -2.625 9.75 C-2.55539063 8.77546875 -2.48578125 7.8009375 -2.4140625 6.796875 C-2.01534751 4.10366811 -1.36492937 2.33036721 0 0 Z " fill="#63B68A" transform="translate(233,256)"/>
<path d="M0 0 C3.26016549 1.66799165 5.31584389 3.59677427 7.6875 6.375 C7.6875 7.365 7.6875 8.355 7.6875 9.375 C4.27994728 7.44619658 0.94602365 5.5473491 -2.3125 3.375 C-1.9825 2.715 -1.6525 2.055 -1.3125 1.375 C-2.3025 1.045 -3.2925 0.715 -4.3125 0.375 C-2.3125 -0.625 -2.3125 -0.625 0 0 Z " fill="#49A9CE" transform="translate(351.3125,31.625)"/>
<path d="M0 0 C0.33 0.66 0.66 1.32 1 2 C0.26821134 4.07196631 -0.55899003 6.1108552 -1.4375 8.125 C-1.91058594 9.22070312 -2.38367188 10.31640625 -2.87109375 11.4453125 C-3.24363281 12.28835938 -3.61617188 13.13140625 -4 14 C-4.66 14 -5.32 14 -6 14 C-6 14.66 -6 15.32 -6 16 C-6.99 16.33 -7.98 16.66 -9 17 C-7.68925635 12.53817564 -5.92933989 9.00381243 -3.375 5.125 C-2.74335938 4.15820312 -2.11171875 3.19140625 -1.4609375 2.1953125 C-0.73777344 1.10863281 -0.73777344 1.10863281 0 0 Z " fill="#71BC93" transform="translate(273,310)"/>
<path d="M0 0 C0.66 0.66 1.32 1.32 2 2 C1.70131344 4.00546689 1.36628677 6.00577205 1 8 C1.33 8.99 1.66 9.98 2 11 C0.92745123 13.51698632 -0.54803452 15.66805545 -2 18 C-2.33 18 -2.66 18 -3 18 C-2.51679152 11.7945858 -1.66681876 6.00054754 0 0 Z " fill="#5FBB87" transform="translate(229,271)"/>
<path d="M0 0 C0.33 0 0.66 0 1 0 C1.99 5.94 2.98 11.88 4 18 C0.79769896 14.79769896 -0.82155256 12.96897095 -1.23046875 8.45703125 C-1.21628906 7.58433594 -1.20210938 6.71164062 -1.1875 5.8125 C-1.18105469 4.93207031 -1.17460938 4.05164063 -1.16796875 3.14453125 C-1 1 -1 1 0 0 Z " fill="#67C8E1" transform="translate(90,276)"/>
<path d="M0 0 C0.66 0.33 1.32 0.66 2 1 C2.10064005 7.28371307 1.75941669 13.32809949 1 19.5625 C0.90460938 20.38041016 0.80921875 21.19832031 0.7109375 22.04101562 C0.47855491 24.02788675 0.23994484 26.01402794 0 28 C-0.33 28 -0.66 28 -1 28 C-1.02888514 24.85418577 -1.04675923 21.70840531 -1.0625 18.5625 C-1.07087891 17.66466797 -1.07925781 16.76683594 -1.08789062 15.84179688 C-1.09111328 14.98779297 -1.09433594 14.13378906 -1.09765625 13.25390625 C-1.10551147 12.06776733 -1.10551147 12.06776733 -1.11352539 10.85766602 C-1 9 -1 9 0 8 C0.07148199 6.64756083 0.08399454 5.29165633 0.0625 3.9375 C0.041875 2.638125 0.02125 1.33875 0 0 Z " fill="#84C3A8" transform="translate(472,122)"/>
<path d="M0 0 C3.12777365 1.56388683 3.67121756 3.82247677 5 7 C5.50966514 9.67814608 5.76524946 12.27689379 6 15 C6.99 15.33 7.98 15.66 9 16 C8.01 16.33 7.02 16.66 6 17 C0.97330408 12.30841714 0.78641722 6.48794203 0 0 Z " fill="#2CC2EC" transform="translate(91,280)"/>
<path d="M0 0 C0.639375 0.33 1.27875 0.66 1.9375 1 C3.76794567 2.07271225 3.76794567 2.07271225 5 2 C5.99 2.33 6.98 2.66 8 3 C6.730447 3.64834654 5.45930294 4.29357815 4.1875 4.9375 C3.47980469 5.29714844 2.77210938 5.65679687 2.04296875 6.02734375 C0 7 0 7 -3 8 C-3 8.66 -3 9.32 -3 10 C-3.66 10 -4.32 10 -5 10 C-4.67 9.01 -4.34 8.02 -4 7 C-3.34 7 -2.68 7 -2 7 C-1.855625 6.21625 -1.71125 5.4325 -1.5625 4.625 C-1 2 -1 2 0 0 Z " fill="#1DA75E" transform="translate(315,257)"/>
<path d="M0 0 C0.33 0 0.66 0 1 0 C1.66 6.6 2.32 13.2 3 20 C2.34 20.33 1.68 20.66 1 21 C-1.86096601 14.02639535 -1.49477149 7.28701103 0 0 Z " fill="#97CEB1" transform="translate(254,352)"/>
<path d="M0 0 C0.66 0.33 1.32 0.66 2 1 C1.36747553 4.19137349 0.24396936 6.51237368 -1.5 9.25 C-1.9434375 9.95640625 -2.386875 10.6628125 -2.84375 11.390625 C-3.2253125 11.92171875 -3.606875 12.4528125 -4 13 C-4.33 13 -4.66 13 -5 13 C-4.61271765 7.28758534 -4.12989477 4.26311718 0 0 Z " fill="#76BD95" transform="translate(255,308)"/>
<path d="M0 0 C0.66 1.32 1.32 2.64 2 4 C2.99 3.67 3.98 3.34 5 3 C4.46939601 7.51013391 2.69113883 10.38378219 0 14 C-0.33 14 -0.66 14 -1 14 C-1.08333357 9.1666528 -0.95261487 4.76307437 0 0 Z " fill="#0B964F" transform="translate(235,306)"/>
<path d="M0 0 C-8.10355142 3.56556262 -15.12742315 5.40007487 -24 6 C-20.32798686 3.55199124 -16.76419546 2.55078304 -12.5625 1.3125 C-11.79873047 1.07466797 -11.03496094 0.83683594 -10.24804688 0.59179688 C-9.13719727 0.26211914 -9.13719727 0.26211914 -8.00390625 -0.07421875 C-6.99565796 -0.37718872 -6.99565796 -0.37718872 -5.96704102 -0.6862793 C-3.70038715 -1.04778485 -2.16955474 -0.6917026 0 0 Z " fill="#74C4DD" transform="translate(358,357)"/>
<path d="M0 0 C2.64 0 5.28 0 8 0 C4.60326697 1.85276347 1.13095396 2.99049196 -2.5625 4.125 C-3.69816406 4.47820312 -4.83382813 4.83140625 -6.00390625 5.1953125 C-9 6 -9 6 -12 6 C-12 5.34 -12 4.68 -12 4 C-10.68 4 -9.36 4 -8 4 C-8 3.34 -8 2.68 -8 2 C-5.36 2 -2.72 2 0 2 C0 1.34 0 0.68 0 0 Z " fill="#6EBD95" transform="translate(312,353)"/>
<path d="M0 0 C0.66 0.33 1.32 0.66 2 1 C0.68 1.99 -0.64 2.98 -2 4 C-1.34 2.68 -0.68 1.36 0 0 Z M-3.75 3.25 C-2.88375 3.62125 -2.88375 3.62125 -2 4 C-3 7 -3 7 -5.9375 8.5625 C-6.948125 9.036875 -7.95875 9.51125 -9 10 C-9.66 10.66 -10.32 11.32 -11 12 C-10.64947365 8.84526281 -10.13480924 7.1766466 -8.1875 4.625 C-6 3 -6 3 -3.75 3.25 Z " fill="#2EA669" transform="translate(306,280)"/>
<path d="M0 0 C1.08062462 3.24187386 0.96405231 3.89709861 0.00390625 7.01171875 C-0.33930664 8.14770508 -0.33930664 8.14770508 -0.68945312 9.30664062 C-0.93630859 10.09232422 -1.18316406 10.87800781 -1.4375 11.6875 C-1.68048828 12.48478516 -1.92347656 13.28207031 -2.17382812 14.10351562 C-2.77479738 16.07139534 -3.3863905 18.03602495 -4 20 C-4.33 20 -4.66 20 -5 20 C-4.88521587 17.93690624 -4.75773802 15.87451646 -4.625 13.8125 C-4.55539063 12.66394531 -4.48578125 11.51539063 -4.4140625 10.33203125 C-4.02490426 7.20040883 -3.3190149 4.84714191 -2 2 C-1.34 2 -0.68 2 0 2 C0 1.34 0 0.68 0 0 Z " fill="#5DC4DF" transform="translate(218,254)"/>
<path d="M0 0 C0.99 0.33 1.98 0.66 3 1 C2.01 1.33 1.02 1.66 0 2 C-0.309375 3.134375 -0.61875 4.26875 -0.9375 5.4375 C-2 9 -2 9 -4 10.25 C-4.66 10.4975 -5.32 10.745 -6 11 C-6.66 11.99 -7.32 12.98 -8 14 C-7.67 12.35 -7.34 10.7 -7 9 C-6.34 9 -5.68 9 -5 9 C-4.731875 8.071875 -4.46375 7.14375 -4.1875 6.1875 C-3.08851629 3.23759634 -2.37581439 1.94384814 0 0 Z " fill="#53B67E" transform="translate(248,230)"/>
<path d="M0 0 C0.33 0.66 0.66 1.32 1 2 C-0.1875 4.6875 -0.1875 4.6875 -2 8 C-2.32613281 8.63164062 -2.65226563 9.26328125 -2.98828125 9.9140625 C-5.63360092 14.87786697 -5.63360092 14.87786697 -9 16 C-7.51637716 9.73581469 -3.75837844 5.08486495 0 0 Z " fill="#82C19F" transform="translate(249,224)"/>
<path d="M0 0 C-1.65 0.33 -3.3 0.66 -5 1 C-5 1.66 -5 2.32 -5 3 C-9.92737019 4.97094808 -13.78020872 5.1799928 -19 5 C-15.83648952 2.89099301 -13.11959156 1.9415843 -9.5 0.8125 C-7.78296875 0.26529297 -7.78296875 0.26529297 -6.03125 -0.29296875 C-3 -1 -3 -1 0 0 Z " fill="#5AB18A" transform="translate(408,151)"/>
<path d="M0 0 C4.62 0 9.24 0 14 0 C14 0.33 14 0.66 14 1 C11.36 1 8.72 1 6 1 C6 1.66 6 2.32 6 3 C4.68 3 3.36 3 2 3 C2 3.66 2 4.32 2 5 C0.02 5 -1.96 5 -4 5 C-2.68 4.34 -1.36 3.68 0 3 C0 2.01 0 1.02 0 0 Z " fill="#2EA769" transform="translate(298,354)"/>
<path d="M0 0 C1.65 0 3.3 0 5 0 C4.875 1.875 4.875 1.875 4 4 C-0.05701058 5.88698167 -3.56542098 6.21117043 -8 6 C-5.44008376 3.98863724 -2.95409701 2.37154504 0 1 C0 0.67 0 0.34 0 0 Z " fill="#1298CC" transform="translate(320,156)"/>
<path d="M0 0 C2.64 0 5.28 0 8 0 C5.373409 2.91843445 2.33023661 4.94517315 -1 7 C-1.66 7 -2.32 7 -3 7 C-3 6.01 -3 5.02 -3 4 C-2.34 3.67 -1.68 3.34 -1 3 C-0.67 2.01 -0.34 1.02 0 0 Z " fill="#69BF91" transform="translate(288,276)"/>
<path d="M0 0 C2.64 0 5.28 0 8 0 C5.68037291 2.31962709 3.53490348 3.30985217 0.5625 4.6875 C-0.40558594 5.14511719 -1.37367188 5.60273438 -2.37109375 6.07421875 C-5 7 -5 7 -8 6 C-7.360625 5.71125 -6.72125 5.4225 -6.0625 5.125 C-3.84793921 4.17176549 -3.84793921 4.17176549 -3 2 C-2.01 2 -1.02 2 0 2 C0 1.34 0 0.68 0 0 Z " fill="#66BEDE" transform="translate(300,166)"/>
<path d="M0 0 C0.66 0.33 1.32 0.66 2 1 C0.625 3 0.625 3 -1 5 C-1.66 5 -2.32 5 -3 5 C-3 5.66 -3 6.32 -3 7 C-5.375 7.625 -5.375 7.625 -8 8 C-8.66 7.34 -9.32 6.68 -10 6 C-8.3811004 4.96951963 -6.75467511 3.95085322 -5.125 2.9375 C-4.22007812 2.36902344 -3.31515625 1.80054688 -2.3828125 1.21484375 C-1.20332031 0.61349609 -1.20332031 0.61349609 0 0 Z " fill="#4EA57F" transform="translate(454,128)"/>
<path d="M0 0 C-0.33 0.99 -0.66 1.98 -1 3 C-2.33333333 3.33333333 -3.66666667 3.66666667 -5 4 C-5.33 4.99 -5.66 5.98 -6 7 C-8.31 7.33 -10.62 7.66 -13 8 C-11.68 7.34 -10.36 6.68 -9 6 C-9 5.34 -9 4.68 -9 4 C-2.25 0 -2.25 0 0 0 Z " fill="#49B0D2" transform="translate(282,381)"/>
<path d="M0 0 C0.99 0 1.98 0 3 0 C1.9545437 3.13636891 1.23811043 3.76188957 -1 6 C-3.264379 9.309477 -4.43253903 12.02777318 -5 16 C-5.33 16 -5.66 16 -6 16 C-6.26863974 10.22424557 -5.1894996 6.7842494 -2 2 C-1.34 2 -0.68 2 0 2 C0 1.34 0 0.68 0 0 Z " fill="#0EA8E0" transform="translate(229,224)"/>
<path d="M0 0 C0.33 0 0.66 0 1 0 C1.53160457 2.41474617 2.05054766 4.83108107 2.5625 7.25 C2.71396484 7.93191406 2.86542969 8.61382812 3.02148438 9.31640625 C3.75233495 12.81769038 4.32203546 15.60298173 3 19 C2.34 18.67 1.68 18.34 1 18 C-0.3764647 12.18248883 -0.09421723 5.93568524 0 0 Z " fill="#A6D6BD" transform="translate(236,408)"/>
<path d="M0 0 C3.3 0.33 6.6 0.66 10 1 C9.67 1.99 9.34 2.98 9 4 C6.69 4 4.38 4 2 4 C1.34 2.68 0.68 1.36 0 0 Z " fill="#72BB96" transform="translate(256,372)"/>
<path d="M0 0 C0.66 0 1.32 0 2 0 C1.03644647 11.52164009 1.03644647 11.52164009 0 17 C-0.33 17 -0.66 17 -1 17 C-1.02699725 14.72923158 -1.04639453 12.45837179 -1.0625 10.1875 C-1.07990234 8.29064453 -1.07990234 8.29064453 -1.09765625 6.35546875 C-1 3 -1 3 0 0 Z " fill="#6BCCE5" transform="translate(209,283)"/>
<path d="M0 0 C0 4.09939665 -1.52298101 5.78656995 -4 9 C-6.75 10.875 -6.75 10.875 -9 12 C-8.67 10.35 -8.34 8.7 -8 7 C-7.01 7 -6.02 7 -5 7 C-4.9175 6.21625 -4.835 5.4325 -4.75 4.625 C-4 2 -4 2 -1.9375 0.6875 C-1.298125 0.460625 -0.65875 0.23375 0 0 Z " fill="#4BAF7A" transform="translate(271,203)"/>
<path d="M0 0 C2.7710688 2.34591852 3.52059284 4.14776201 4.1875 7.6875 C4.34605469 8.49574219 4.50460938 9.30398438 4.66796875 10.13671875 C4.77753906 10.75160156 4.88710937 11.36648438 5 12 C4.01 12.33 3.02 12.66 2 13 C0.54815522 8.46298506 -0.23509196 4.81938524 0 0 Z " fill="#5EBCDE" transform="translate(250,410)"/>
<path d="M0 0 C1 3 1 3 -0.1875 5.9375 C-1.88069631 8.7984179 -3.53876547 10.79337594 -6 13 C-5.67 11.02 -5.34 9.04 -5 7 C-4.01 6.67 -3.02 6.34 -2 6 C-2 4.35 -2 2.7 -2 1 C-1.34 0.67 -0.68 0.34 0 0 Z " fill="#61B7D1" transform="translate(362,404)"/>
<path d="M0 0 C0.66 0.33 1.32 0.66 2 1 C2.125 6.75 2.125 6.75 1 9 C-0.65 9 -2.3 9 -4 9 C-3.34 8.67 -2.68 8.34 -2 8 C-1.62599214 5.67284 -1.29235267 3.33882138 -1 1 C-0.67 0.67 -0.34 0.34 0 0 Z " fill="#1A9259" transform="translate(442,263)"/>
<path d="M0 0 C0.66 0.33 1.32 0.66 2 1 C0.79180633 4.624581 0.19658087 4.40170957 -3 6 C-3.33 6.99 -3.66 7.98 -4 9 C-5.65 9.33 -7.3 9.66 -9 10 C-8.06409496 8.8944811 -7.12620142 7.79064547 -6.1875 6.6875 C-5.66542969 6.07261719 -5.14335937 5.45773438 -4.60546875 4.82421875 C-3.12827531 3.14575321 -1.59960869 1.56117966 0 0 Z " fill="#85C6A6" transform="translate(265,206)"/>
<path d="M0 0 C1.98 0.66 3.96 1.32 6 2 C5.875 3.875 5.875 3.875 5 6 C1.9375 7.25 1.9375 7.25 -1 8 C-0.7215625 7.1028125 -0.7215625 7.1028125 -0.4375 6.1875 C0.22093687 3.83591238 0.22093687 3.83591238 -1 1 C-0.67 0.67 -0.34 0.34 0 0 Z " fill="#12A5DD" transform="translate(250,193)"/>
<path d="M0 0 C0.66 0 1.32 0 2 0 C1.22095672 12.66970387 1.22095672 12.66970387 -1 18 C-2.25394255 13.92468671 -2.85731604 9.82179659 -1 5.875 C-0.67 5.25625 -0.34 4.6375 0 4 C0 2.68 0 1.36 0 0 Z " fill="#4CC081" transform="translate(234,296)"/>
<path d="M0 0 C0.33 0 0.66 0 1 0 C1.11083416 5.43087408 1.11115605 10.66645094 0 16 C-0.66 16.33 -1.32 16.66 -2 17 C-2.22084624 10.90218999 -2.01167675 5.78357065 0 0 Z " fill="#70B78E" transform="translate(224,289)"/>
<path d="M0 0 C0.66 0.33 1.32 0.66 2 1 C-0.66666667 3.66666667 -3.33333333 6.33333333 -6 9 C-6.99 8.34 -7.98 7.68 -9 7 C-6.03 4.69 -3.06 2.38 0 0 Z " fill="#6EBC95" transform="translate(309,275)"/>
<path d="M0 0 C0.66 0.33 1.32 0.66 2 1 C1 4 1 4 -0.7421875 5.16796875 C-1.44601562 5.50441406 -2.14984375 5.84085938 -2.875 6.1875 C-3.57367188 6.53167969 -4.27234375 6.87585938 -4.9921875 7.23046875 C-7 8 -7 8 -10 8 C-6.7 5.36 -3.4 2.72 0 0 Z " fill="#72BD96" transform="translate(278,196)"/>
<path d="M0 0 C0.66 0 1.32 0 2 0 C1.5206753 4.31392226 0.2542015 6.16569547 -3 9 C-3.66 8.67 -4.32 8.34 -5 8 C-4.34 6.35 -3.68 4.7 -3 3 C-2.01 3 -1.02 3 0 3 C0 2.01 0 1.02 0 0 Z " fill="#45B5D9" transform="translate(260,189)"/>
<path d="M0 0 C-0.33 0.66 -0.66 1.32 -1 2 C-3.28515625 2.4140625 -3.28515625 2.4140625 -6.0625 2.625 C-6.98160156 2.69976562 -7.90070313 2.77453125 -8.84765625 2.8515625 C-9.55792969 2.90054687 -10.26820313 2.94953125 -11 3 C-11 2.34 -11 1.68 -11 1 C-3.57142857 -1.42857143 -3.57142857 -1.42857143 0 0 Z " fill="#4EAED3" transform="translate(334,364)"/>
<path d="M0 0 C1.98 0 3.96 0 6 0 C2.98112756 3.48331435 0.43090471 4.79157144 -4 6 C-4 5.01 -4 4.02 -4 3 C-2.68 3 -1.36 3 0 3 C0 2.01 0 1.02 0 0 Z " fill="#359F6A" transform="translate(386,325)"/>
<path d="M0 0 C0 0.66 0 1.32 0 2 C-1.7015625 2.680625 -1.7015625 2.680625 -3.4375 3.375 C-7.04721692 4.57095806 -7.04721692 4.57095806 -8 7 C-9.32 6.67 -10.64 6.34 -12 6 C-9.53424658 2.17808219 -9.53424658 2.17808219 -6.9375 1.3125 C-6.298125 1.209375 -5.65875 1.10625 -5 1 C-3 0 -3 0 0 0 Z " fill="#0BA4D8" transform="translate(273,182)"/>
<path d="M0 0 C1.9451 2.91765 2.45276317 4.62537285 3 8 C1.35 8 -0.3 8 -2 8 C-1.125 1.125 -1.125 1.125 0 0 Z " fill="#05B1F4" transform="translate(213,143)"/>
<path d="M0 0 C0.33 0.66 0.66 1.32 1 2 C0.01 3.485 0.01 3.485 -1 5 C-2.32 4.67 -3.64 4.34 -5 4 C-3.35 2.68 -1.7 1.36 0 0 Z M-7 5 C-6.34 5.33 -5.68 5.66 -5 6 C-6.32 7.32 -7.64 8.64 -9 10 C-9.66 9.67 -10.32 9.34 -11 9 C-9.68 7.68 -8.36 6.36 -7 5 Z " fill="#33B670" transform="translate(274,274)"/>
<path d="M0 0 C-0.33 1.98 -0.66 3.96 -1 6 C-2.32 6.33 -3.64 6.66 -5 7 C-5.6875 5.1875 -5.6875 5.1875 -6 3 C-4.04862098 0.26806937 -3.44686768 0 0 0 Z " fill="#03944C" transform="translate(438,273)"/>
<path d="M0 0 C2.31 0 4.62 0 7 0 C8.35439668 2.70879335 8.06501451 5.00933268 8 8 C7.01 8.495 7.01 8.495 6 9 C5.7525 7.88625 5.505 6.7725 5.25 5.625 C4.38994661 1.95384802 4.38994661 1.95384802 1.875 0.5625 C1.25625 0.376875 0.6375 0.19125 0 0 Z " fill="#1A8353" transform="translate(465,122)"/>
<path d="M0 0 C-2.6855594 2.6855594 -5.37621328 3.06049974 -9 4 C-9 2.68 -9 1.36 -9 0 C-5.52176885 -1.15941038 -3.54104422 -0.70820884 0 0 Z " fill="#31B16E" transform="translate(287,361)"/>
<path d="M0 0 C1.00109515 3.31070838 1.10356134 6.30084769 1.0625 9.75 C1.05347656 10.73484375 1.04445312 11.7196875 1.03515625 12.734375 C1.02355469 13.48203125 1.01195312 14.2296875 1 15 C0.01 15.495 0.01 15.495 -1 16 C-2.24327778 10.15659442 -1.57300962 5.73303505 0 0 Z " fill="#39AF70" transform="translate(234,308)"/>
<path d="M0 0 C0.99 0.33 1.98 0.66 3 1 C2.74476126 2.62752231 2.47025506 4.25203196 2.1875 5.875 C2.03667969 6.77992188 1.88585937 7.68484375 1.73046875 8.6171875 C1 11 1 11 -2 13 C-1.4910781 10.45539052 -0.9812399 7.91245285 -0.4375 5.375 C0.09058121 2.91076672 0.09058121 2.91076672 0 0 Z " fill="#09904D" transform="translate(451,240)"/>
<path d="M0 0 C-1.76641683 0.6987693 -3.53832664 1.38366583 -5.3125 2.0625 C-6.79169922 2.63677734 -6.79169922 2.63677734 -8.30078125 3.22265625 C-11 4 -11 4 -14 3 C-13 1 -13 1 -11.07421875 0.33203125 C-10.28660156 0.16058594 -9.49898438 -0.01085937 -8.6875 -0.1875 C-7.90761719 -0.36667969 -7.12773437 -0.54585937 -6.32421875 -0.73046875 C-3.90795241 -1.01067443 -2.29757048 -0.74132137 0 0 Z " fill="#6BBFDD" transform="translate(322,162)"/>
<path d="M0 0 C-0.33 0.66 -0.66 1.32 -1 2 C-1.928125 1.979375 -2.85625 1.95875 -3.8125 1.9375 C-7.02286011 1.84230396 -7.02286011 1.84230396 -10 3 C-10.66 2.67 -11.32 2.34 -12 2 C-12 1.34 -12 0.68 -12 0 C-3.42857143 -1.28571429 -3.42857143 -1.28571429 0 0 Z " fill="#0B9754" transform="translate(401,156)"/>
<path d="M0 0 C2.49361571 1.20381448 4.68143083 2.45428722 7 4 C6.67 4.99 6.34 5.98 6 7 C2.63279613 5.60667426 1.0140476 4.0210714 -1 1 C-0.67 0.67 -0.34 0.34 0 0 Z " fill="#0E93CE" transform="translate(353,37)"/>
<path d="M0 0 C0.33 1.32 0.66 2.64 1 4 C0.01 4.495 0.01 4.495 -1 5 C-1 6.65 -1 8.3 -1 10 C-1.99 10.495 -1.99 10.495 -3 11 C-3.6875 9.375 -3.6875 9.375 -4 7 C-1.72413793 1.72413793 -1.72413793 1.72413793 0 0 Z " fill="#61B487" transform="translate(277,305)"/>
<path d="M0 0 C0.66 0 1.32 0 2 0 C1.52797514 4.24822374 -0.96655518 6.19989709 -4 9 C-3.4739075 5.21213403 -2.61896089 2.82847776 0 0 Z " fill="#2F9565" transform="translate(429,287)"/>
<path d="M0 0 C0.66 0.66 1.32 1.32 2 2 C1.7578125 4.1640625 1.7578125 4.1640625 1.125 6.625 C0.92132813 7.44226563 0.71765625 8.25953125 0.5078125 9.1015625 C0.34023438 9.72804687 0.17265625 10.35453125 0 11 C-0.66 11 -1.32 11 -2 11 C-1.125 3.375 -1.125 3.375 0 0 Z " fill="#3A986C" transform="translate(455,236)"/>
<path d="M0 0 C0 0.66 0 1.32 0 2 C-0.99 2 -1.98 2 -3 2 C-3.33 2.99 -3.66 3.98 -4 5 C-7.0625 6.1875 -7.0625 6.1875 -10 7 C-8.4558095 2.36742851 -4.87763981 0 0 0 Z " fill="#1698CF" transform="translate(300,166)"/>
<path d="M0 0 C-0.99 0 -1.98 0 -3 0 C-3 0.66 -3 1.32 -3 2 C-11.03571429 3.20535714 -11.03571429 3.20535714 -15 2 C-13.25364835 1.46706165 -11.50272348 0.94909337 -9.75 0.4375 C-8.77546875 0.14746094 -7.8009375 -0.14257812 -6.796875 -0.44140625 C-4.03756068 -0.99249836 -2.6087176 -0.93789609 0 0 Z " fill="#63B88C" transform="translate(378,160)"/>
<path d="M0 0 C-1.43554025 0.50559908 -2.8735202 1.0042749 -4.3125 1.5 C-5.51326172 1.91765625 -5.51326172 1.91765625 -6.73828125 2.34375 C-9 3 -9 3 -12 3 C-12 2.01 -12 1.02 -12 0 C-3.96428571 -1.20535714 -3.96428571 -1.20535714 0 0 Z " fill="#48AB7D" transform="translate(356,343)"/>
<path d="M0 0 C0.66 0.66 1.32 1.32 2 2 C2.99 2 3.98 2 5 2 C3.6875 4.9375 3.6875 4.9375 2 8 C1.01 8.33 0.02 8.66 -1 9 C-0.67 6.03 -0.34 3.06 0 0 Z " fill="#37B574" transform="translate(256,231)"/>
<path d="M0 0 C0.99 0.66 1.98 1.32 3 2 C-1.625 6.875 -1.625 6.875 -5 8 C-3.62845496 5.04590299 -2.01136276 2.55991624 0 0 Z " fill="#7FC2A0" transform="translate(255,216)"/>
<path d="M0 0 C-2.64 1.98 -5.28 3.96 -8 6 C-8.66 5.01 -9.32 4.02 -10 3 C-8.68 3 -7.36 3 -6 3 C-6 2.01 -6 1.02 -6 0 C-2.25 -1.125 -2.25 -1.125 0 0 Z " fill="#89CCA9" transform="translate(283,286)"/>
<path d="M0 0 C0.33 0 0.66 0 1 0 C1.125 6.75 1.125 6.75 0 9 C-0.66 9 -1.32 9 -2 9 C-2.33 9.66 -2.66 10.32 -3 11 C-2.69078116 9.54096742 -2.37751201 8.08279278 -2.0625 6.625 C-1.88847656 5.81289062 -1.71445313 5.00078125 -1.53515625 4.1640625 C-1 2 -1 2 0 0 Z " fill="#18A8DA" transform="translate(218,247)"/>
<path d="M0 0 C0.66 0.33 1.32 0.66 2 1 C1.2884375 2.175625 1.2884375 2.175625 0.5625 3.375 C-0.33898023 4.88948678 -1.21179485 6.4235897 -2 8 C-2.99 7.67 -3.98 7.34 -5 7 C-5 6.01 -5 5.02 -5 4 C-2.5 1.8125 -2.5 1.8125 0 0 Z " fill="#33B06A" transform="translate(288,192)"/>
<path d="M0 0 C-0.99 0.495 -0.99 0.495 -2 1 C-2 1.66 -2 2.32 -2 3 C-4.64 3.33 -7.28 3.66 -10 4 C-7.16124653 -0.25813021 -4.8137938 -0.13010254 0 0 Z " fill="#42A976" transform="translate(328,174)"/>
<path d="M0 0 C2 1 2 1 3 2 C3 2.66 3 3.32 3 4 C1.88625 4.474375 0.7725 4.94875 -0.375 5.4375 C-2.26710994 6.25306463 -4.15712709 7.07856355 -6 8 C-4.55746343 4.63408134 -2.66735273 2.48952921 0 0 Z " fill="#7AD2E9" transform="translate(98,153)"/>
<path d="M0 0 C1.37432457 3.81756824 0.67975039 7.07255329 0 11 C-0.66 10.67 -1.32 10.34 -2 10 C-1.85950482 8.52031676 -1.71245174 7.04125484 -1.5625 5.5625 C-1.48128906 4.73878906 -1.40007812 3.91507812 -1.31640625 3.06640625 C-1 1 -1 1 0 0 Z " fill="#6FBC90" transform="translate(237,434)"/>
<path d="M0 0 C2.29633824 3.44450737 2.54016485 5.93812283 3 10 C2.01 9.67 1.02 9.34 0 9 C0 6.03 0 3.06 0 0 Z " fill="#8CC8A9" transform="translate(240,427)"/>
<path d="M0 0 C0.33 0.66 0.66 1.32 1 2 C-0.25 5.5625 -0.25 5.5625 -2 9 C-2.99 9.33 -3.98 9.66 -5 10 C-3.84414715 6.08788267 -2.64465038 3.1254959 0 0 Z " fill="#82C5A5" transform="translate(273,310)"/>
<path d="M0 0 C1 2 1 2 0.375 4.5 C-1 7 -1 7 -3.625 8.3125 C-4.40875 8.539375 -5.1925 8.76625 -6 9 C-4.47291037 5.56404834 -2.40072955 2.88087546 0 0 Z " fill="#78C19B" transform="translate(284,296)"/>
<path d="M0 0 C1.98 0 3.96 0 6 0 C6.33 0.99 6.66 1.98 7 3 C4 4 4 4 1.8125 3.0625 C1.214375 2.711875 0.61625 2.36125 0 2 C0 1.34 0 0.68 0 0 Z " fill="#1DC3F3" transform="translate(105,296)"/>
<path d="M0 0 C0.66 0.33 1.32 0.66 2 1 C1.0409375 2.1446875 1.0409375 2.1446875 0.0625 3.3125 C-2.14232781 5.88246713 -2.14232781 5.88246713 -3 9 C-3.99 9 -4.98 9 -6 9 C-4.68775452 5.06326356 -3.08089673 2.77280706 0 0 Z " fill="#5EB78B" transform="translate(298,283)"/>
<path d="M0 0 C2.64 0 5.28 0 8 0 C6.66666667 0.66666667 5.33333333 1.33333333 4 2 C3.319375 2.391875 2.63875 2.78375 1.9375 3.1875 C0 4 0 4 -3 3 C-2.34 3 -1.68 3 -1 3 C-0.67 2.01 -0.34 1.02 0 0 Z " fill="#34A86B" transform="translate(293,188)"/>
<path d="M0 0 C-5.14285714 4.42857143 -5.14285714 4.42857143 -9 5 C-6.81610567 0.16423399 -5.20641855 -0.13701101 0 0 Z " fill="#62BDDE" transform="translate(290,174)"/>
<path d="M0 0 C0.99 0.33 1.98 0.66 3 1 C1 4 1 4 -2 5 C-2.66 5.99 -3.32 6.98 -4 8 C-4.33 6.68 -4.66 5.36 -5 4 C-3.35 3.34 -1.7 2.68 0 2 C0 1.34 0 0.68 0 0 Z " fill="#0F8D50" transform="translate(444,135)"/>
<path d="M0 0 C2.125 0.375 2.125 0.375 4 1 C3.01 2.485 3.01 2.485 2 4 C0.68 3.34 -0.64 2.68 -2 2 C-1.34 1.34 -0.68 0.68 0 0 Z M-5 3 C-4.01 3.33 -3.02 3.66 -2 4 C-2.99 4.33 -3.98 4.66 -5 5 C-5 4.34 -5 3.68 -5 3 Z " fill="#05AFEB" transform="translate(220,36)"/>
<path d="M0 0 C-2.68841859 2.25245881 -4.64641875 3.88213958 -8 5 C-8 4.01 -8 3.02 -8 2 C-3.71900826 -1.23966942 -3.71900826 -1.23966942 0 0 Z " fill="#55ADC7" transform="translate(356,417)"/>
<path d="M0 0 C0.99 0.33 1.98 0.66 3 1 C1.02 3.97 1.02 3.97 -1 7 C-1.66 6.34 -2.32 5.68 -3 5 C-3 4.01 -3 3.02 -3 2 C-2.34 2 -1.68 2 -1 2 C-0.67 1.34 -0.34 0.68 0 0 Z " fill="#83C4A1" transform="translate(259,304)"/>
<path d="M0 0 C0.66 0.33 1.32 0.66 2 1 C0.875 2.9375 0.875 2.9375 -1 5 C-4.1875 5.75 -4.1875 5.75 -7 6 C-4.74259377 3.66475218 -2.7194239 1.81294927 0 0 Z " fill="#68BC92" transform="translate(324,265)"/>
<path d="M0 0 C2 2 2 2 2.125 5.125 C2.08375 6.07375 2.0425 7.0225 2 8 C1.01 7.67 0.02 7.34 -1 7 C-0.67 4.69 -0.34 2.38 0 0 Z " fill="#61B585" transform="translate(238,425)"/>
<path d="M0 0 C-1.625 1.5625 -1.625 1.5625 -4 3 C-7.25 2.6875 -7.25 2.6875 -10 2 C-3.75 -1.125 -3.75 -1.125 0 0 Z " fill="#0998D6" transform="translate(339,365)"/>
<path d="M0 0 C1.98 0.99 1.98 0.99 4 2 C4 2.99 4 3.98 4 5 C4.99 5.33 5.98 5.66 7 6 C6.01 6.33 5.02 6.66 4 7 C0 2.25 0 2.25 0 0 Z " fill="#45B8DF" transform="translate(93,290)"/>
<path d="M0 0 C0.66 0.33 1.32 0.66 2 1 C1.625 2.9375 1.625 2.9375 1 5 C0.01 5.495 0.01 5.495 -1 6 C-1 5.34 -1 4.68 -1 4 C-1.66 3.67 -2.32 3.34 -3 3 C-2.01 2.01 -1.02 1.02 0 0 Z " fill="#60B889" transform="translate(272,289)"/>
<path d="M0 0 C0.99 0 1.98 0 3 0 C1.92598892 2.91517292 1.22189824 4.77810176 -1 7 C-1.04254356 5.00045254 -1.04080783 2.99958364 -1 1 C-0.67 0.67 -0.34 0.34 0 0 Z " fill="#42A372" transform="translate(439,272)"/>
<path d="M0 0 C0.99 0 1.98 0 3 0 C1.25 5.75 1.25 5.75 -1 8 C-1.125 2.25 -1.125 2.25 0 0 Z " fill="#4FA881" transform="translate(445,261)"/>
<path d="M0 0 C0.99 0 1.98 0 3 0 C3.33 0.99 3.66 1.98 4 3 C2.02 3.33 0.04 3.66 -2 4 C-2.33 3.34 -2.66 2.68 -3 2 C-2.01 2 -1.02 2 0 2 C0 1.34 0 0.68 0 0 Z " fill="#21AD64" transform="translate(304,264)"/>
<path d="M0 0 C0.33 0.66 0.66 1.32 1 2 C0.67 2.66 0.34 3.32 0 4 C-1.98 4 -3.96 4 -6 4 C-4 1 -4 1 -1.875 0.3125 C-1.25625 0.209375 -0.6375 0.10625 0 0 Z " fill="#4AB784" transform="translate(332,261)"/>
<path d="M0 0 C1.98 0 3.96 0 6 0 C4.1875 2 4.1875 2 2 4 C1.01 4 0.02 4 -1 4 C-0.67 2.68 -0.34 1.36 0 0 Z " fill="#1497D1" transform="translate(306,162)"/>
<path d="M0 0 C0.66 0 1.32 0 2 0 C2 0.99 2 1.98 2 3 C0.35 3.66 -1.3 4.32 -3 5 C-3.33 4.01 -3.66 3.02 -4 2 C-2.68 2 -1.36 2 0 2 C0 1.34 0 0.68 0 0 Z " fill="#29C2F1" transform="translate(101,155)"/>
<path d="M0 0 C0.53625 0.226875 1.0725 0.45375 1.625 0.6875 C-3.79038462 3.76442308 -3.79038462 3.76442308 -6.75 3.375 C-7.554375 3.0346875 -7.554375 3.0346875 -8.375 2.6875 C-2.95961538 -0.38942308 -2.95961538 -0.38942308 0 0 Z " fill="#86D7E9" transform="translate(108.375,149.3125)"/>
</svg>
